<svg viewBox="0 0 1177.5 400" xmlns="http://www.w3.org/2000/svg"><g><g><g><g><g><line x1="61.77000045776367" y1="377.9749994277954" x2="56.77000045776367" y2="377.9749994277954" style="visibility: inherit;" fill="rgb(0, 0, 0)" stroke="rgb(204, 204, 204)" stroke-width="1px"></line><line x1="61.77000045776367" y1="335.9777772691515" x2="56.77000045776367" y2="335.9777772691515" style="visibility: inherit;" fill="rgb(0, 0, 0)" stroke="rgb(204, 204, 204)" stroke-width="1px"></line><line x1="61.77000045776367" y1="293.98055511050757" x2="56.77000045776367" y2="293.98055511050757" style="visibility: inherit;" fill="rgb(0, 0, 0)" stroke="rgb(204, 204, 204)" stroke-width="1px"></line><line x1="61.77000045776367" y1="251.98333295186362" x2="56.77000045776367" y2="251.98333295186362" style="visibility: inherit;" fill="rgb(0, 0, 0)" stroke="rgb(204, 204, 204)" stroke-width="1px"></line><line x1="61.77000045776367" y1="209.9861107932197" x2="56.77000045776367" y2="209.9861107932197" style="visibility: inherit;" fill="rgb(0, 0, 0)" stroke="rgb(204, 204, 204)" stroke-width="1px"></line><line x1="61.77000045776367" y1="167.98888863457572" x2="56.77000045776367" y2="167.98888863457572" style="visibility: inherit;" fill="rgb(0, 0, 0)" stroke="rgb(204, 204, 204)" stroke-width="1px"></line><line x1="61.77000045776367" y1="125.99166647593182" x2="56.77000045776367" y2="125.99166647593182" style="visibility: inherit;" fill="rgb(0, 0, 0)" stroke="rgb(204, 204, 204)" stroke-width="1px"></line><line x1="61.77000045776367" y1="83.99444431728784" x2="56.77000045776367" y2="83.99444431728784" style="visibility: inherit;" fill="rgb(0, 0, 0)" stroke="rgb(204, 204, 204)" stroke-width="1px"></line><line x1="61.77000045776367" y1="41.99722215864398" x2="56.77000045776367" y2="41.99722215864398" style="visibility: inherit;" fill="rgb(0, 0, 0)" stroke="rgb(204, 204, 204)" stroke-width="1px"></line><line x1="61.77000045776367" y1="0" x2="56.77000045776367" y2="0" style="visibility: inherit;" fill="rgb(0, 0, 0)" stroke="rgb(204, 204, 204)" stroke-width="1px"></line></g><g transform="translate(51.77000045776367, 0)"><text style="text-anchor: end; visibility: hidden; font-family: &quot;Helvetica Neue&quot;, sans-serif; font-size: 12px; font-weight: 200;" x="0" y="377.9749994277954" dx="0em" dy="0.3em" fill="rgb(50, 49, 63)" stroke="none" stroke-width="1px">-4e+3</text><text style="text-anchor: end; visibility: inherit; font-family: &quot;Helvetica Neue&quot;, sans-serif; font-size: 12px; font-weight: 200;" x="0" y="335.9777772691515" dx="0em" dy="0.3em" fill="rgb(50, 49, 63)" stroke="none" stroke-width="1px">-3e+3</text><text style="text-anchor: end; visibility: inherit; font-family: &quot;Helvetica Neue&quot;, sans-serif; font-size: 12px; font-weight: 200;" x="0" y="293.98055511050757" dx="0em" dy="0.3em" fill="rgb(50, 49, 63)" stroke="none" stroke-width="1px">-2e+3</text><text style="text-anchor: end; visibility: inherit; font-family: &quot;Helvetica Neue&quot;, sans-serif; font-size: 12px; font-weight: 200;" x="0" y="251.98333295186362" dx="0em" dy="0.3em" fill="rgb(50, 49, 63)" stroke="none" stroke-width="1px">-1e+3</text><text style="text-anchor: end; visibility: inherit; font-family: &quot;Helvetica Neue&quot;, sans-serif; font-size: 12px; font-weight: 200;" x="0" y="209.9861107932197" dx="0em" dy="0.3em" fill="rgb(50, 49, 63)" stroke="none" stroke-width="1px">0</text><text style="text-anchor: end; visibility: inherit; font-family: &quot;Helvetica Neue&quot;, sans-serif; font-size: 12px; font-weight: 200;" x="0" y="167.98888863457572" dx="0em" dy="0.3em" fill="rgb(50, 49, 63)" stroke="none" stroke-width="1px">1e+3</text><text style="text-anchor: end; visibility: inherit; font-family: &quot;Helvetica Neue&quot;, sans-serif; font-size: 12px; font-weight: 200;" x="0" y="125.99166647593182" dx="0em" dy="0.3em" fill="rgb(50, 49, 63)" stroke="none" stroke-width="1px">2e+3</text><text style="text-anchor: end; visibility: inherit; font-family: &quot;Helvetica Neue&quot;, sans-serif; font-size: 12px; font-weight: 200;" x="0" y="83.99444431728784" dx="0em" dy="0.3em" fill="rgb(50, 49, 63)" stroke="none" stroke-width="1px">3e+3</text><text style="text-anchor: end; visibility: inherit; font-family: &quot;Helvetica Neue&quot;, sans-serif; font-size: 12px; font-weight: 200;" x="0" y="41.99722215864398" dx="0em" dy="0.3em" fill="rgb(50, 49, 63)" stroke="none" stroke-width="1px">4e+3</text><text style="text-anchor: end; visibility: hidden; font-family: &quot;Helvetica Neue&quot;, sans-serif; font-size: 12px; font-weight: 200;" x="0" y="0" dx="0em" dy="0.3em" fill="rgb(50, 49, 63)" stroke="none" stroke-width="1px">5e+3</text></g><line x1="61.77000045776367" y1="0" x2="61.77000045776367" y2="377.9749994277954" fill="rgb(0, 0, 0)" stroke="rgb(204, 204, 204)" stroke-width="1px"></line></g></g><g transform="translate(61, 0)" clip-path="url(#clip_0)"><clipPath id="clip_0"><rect width="1115" height="377"></rect></clipPath><g><g><g><line x1="0" y1="0" x2="0" y2="377.9749994277954" fill="rgb(0, 0, 0)" stroke="rgb(60, 60, 60)" stroke-width="1px" opacity="0.25"></line><line x1="79.69499996730259" y1="0" x2="79.69499996730259" y2="377.9749994277954" fill="rgb(0, 0, 0)" stroke="rgb(60, 60, 60)" stroke-width="1px" opacity="0.25"></line><line x1="159.38999993460519" y1="0" x2="159.38999993460519" y2="377.9749994277954" fill="rgb(0, 0, 0)" stroke="rgb(60, 60, 60)" stroke-width="1px" opacity="0.25"></line><line x1="239.08499990190776" y1="0" x2="239.08499990190776" y2="377.9749994277954" fill="rgb(0, 0, 0)" stroke="rgb(60, 60, 60)" stroke-width="1px" opacity="0.25"></line><line x1="318.77999986921037" y1="0" x2="318.77999986921037" y2="377.9749994277954" fill="rgb(0, 0, 0)" stroke="rgb(60, 60, 60)" stroke-width="1px" opacity="0.25"></line><line x1="398.474999836513" y1="0" x2="398.474999836513" y2="377.9749994277954" fill="rgb(0, 0, 0)" stroke="rgb(60, 60, 60)" stroke-width="1px" opacity="0.25"></line><line x1="478.16999980381553" y1="0" x2="478.16999980381553" y2="377.9749994277954" fill="rgb(0, 0, 0)" stroke="rgb(60, 60, 60)" stroke-width="1px" opacity="0.25"></line><line x1="557.8649997711182" y1="0" x2="557.8649997711182" y2="377.9749994277954" fill="rgb(0, 0, 0)" stroke="rgb(60, 60, 60)" stroke-width="1px" opacity="0.25"></line><line x1="637.5599997384207" y1="0" x2="637.5599997384207" y2="377.9749994277954" fill="rgb(0, 0, 0)" stroke="rgb(60, 60, 60)" stroke-width="1px" opacity="0.25"></line><line x1="717.2549997057234" y1="0" x2="717.2549997057234" y2="377.9749994277954" fill="rgb(0, 0, 0)" stroke="rgb(60, 60, 60)" stroke-width="1px" opacity="0.25"></line><line x1="796.949999673026" y1="0" x2="796.949999673026" y2="377.9749994277954" fill="rgb(0, 0, 0)" stroke="rgb(60, 60, 60)" stroke-width="1px" opacity="0.25"></line><line x1="876.6449996403285" y1="0" x2="876.6449996403285" y2="377.9749994277954" fill="rgb(0, 0, 0)" stroke="rgb(60, 60, 60)" stroke-width="1px" opacity="0.25"></line><line x1="956.3399996076311" y1="0" x2="956.3399996076311" y2="377.9749994277954" fill="rgb(0, 0, 0)" stroke="rgb(60, 60, 60)" stroke-width="1px" opacity="0.25"></line><line x1="1036.0349995749339" y1="0" x2="1036.0349995749339" y2="377.9749994277954" fill="rgb(0, 0, 0)" stroke="rgb(60, 60, 60)" stroke-width="1px" opacity="0.25"></line><line x1="1115.7299995422363" y1="0" x2="1115.7299995422363" y2="377.9749994277954" fill="rgb(0, 0, 0)" stroke="rgb(60, 60, 60)" stroke-width="1px" opacity="0.25"></line></g><g><line x1="0" y1="377.9749994277954" x2="1115.7299995422363" y2="377.9749994277954" fill="rgb(0, 0, 0)" stroke="rgb(60, 60, 60)" stroke-width="1px" opacity="0.25"></line><line x1="0" y1="335.9777772691515" x2="1115.7299995422363" y2="335.9777772691515" fill="rgb(0, 0, 0)" stroke="rgb(60, 60, 60)" stroke-width="1px" opacity="0.25"></line><line x1="0" y1="293.98055511050757" x2="1115.7299995422363" y2="293.98055511050757" fill="rgb(0, 0, 0)" stroke="rgb(60, 60, 60)" stroke-width="1px" opacity="0.25"></line><line x1="0" y1="251.98333295186362" x2="1115.7299995422363" y2="251.98333295186362" fill="rgb(0, 0, 0)" stroke="rgb(60, 60, 60)" stroke-width="1px" opacity="0.25"></line><line x1="0" y1="209.9861107932197" x2="1115.7299995422363" y2="209.9861107932197" fill="rgb(0, 0, 0)" stroke="rgb(60, 60, 60)" stroke-width="1px" opacity="0.25"></line><line x1="0" y1="167.98888863457572" x2="1115.7299995422363" y2="167.98888863457572" fill="rgb(0, 0, 0)" stroke="rgb(60, 60, 60)" stroke-width="1px" opacity="0.25"></line><line x1="0" y1="125.99166647593182" x2="1115.7299995422363" y2="125.99166647593182" fill="rgb(0, 0, 0)" stroke="rgb(60, 60, 60)" stroke-width="1px" opacity="0.25"></line><line x1="0" y1="83.99444431728784" x2="1115.7299995422363" y2="83.99444431728784" fill="rgb(0, 0, 0)" stroke="rgb(60, 60, 60)" stroke-width="1px" opacity="0.25"></line><line x1="0" y1="41.99722215864398" x2="1115.7299995422363" y2="41.99722215864398" fill="rgb(0, 0, 0)" stroke="rgb(60, 60, 60)" stroke-width="1px" opacity="0.25"></line><line x1="0" y1="0" x2="1115.7299995422363" y2="0" fill="rgb(0, 0, 0)" stroke="rgb(60, 60, 60)" stroke-width="1px" opacity="0.25"></line></g></g></g><g><g><line x1="0" y1="209.9861107932197" x2="1115.7299995422363" y2="209.9861107932197" fill="rgb(0, 0, 0)" stroke="rgb(153, 153, 153)" stroke-width="1.5px"></line></g></g><g><g><line x1="79.69499996730259" y1="0" x2="79.69499996730259" y2="377.9749994277954" fill="rgb(0, 0, 0)" stroke="rgb(153, 153, 153)" stroke-width="1.5px"></line></g></g><g><g><g><g><g><path style="fill: none;" stroke="rgb(0, 153, 136)" stroke-width="2px" d="M122.730299949646,395.1279866454071L127.51199994768415,341.1165858980196L132.29369994572232,303.009525743063L137.07539994376046,262.98848055148915L141.85709994179862,233.7714135874945L146.63879993983676,213.42222697240118L151.42049993787492,198.39724918026945L156.20219993591311,184.13388388363242L160.98389993395125,175.83047786361777L165.7655999319894,169.40203367246394L170.54729993002755,158.2516545088356L175.3289999280657,145.62754349451671L180.11069992610385,132.05034959001213L184.892399924142,123.345758166288L189.67409992218018,119.71270791664261L194.45579992021834,114.50347429047628L199.2374999182565,118.29825844319959L204.01919991629464,119.75750528345708L208.8008999143328,115.48746160793269L213.58259991237094,107.48720826233858L218.3642999104091,105.64298101182493L223.14599990844727,96.76116522125898L227.92769990648543,89.72551403805113L232.7093999045236,85.84559864856465L237.49109990256173,86.77186155001539L242.2727999005999,82.41358016335255L247.05449989863803,81.62280294303326L251.8361998966762,80.80411300110313L256.61789989471436,81.25182980480702L261.3995998927525,72.55555065039988L266.1812998907907,72.56976844339084L270.96299988882885,72.68086575089819L275.74469988686695,74.58824841122038L280.5263998849052,77.8362843432779L285.3080998829433,82.25241373669348L290.08979988098145,80.464136418127L294.8714998790196,77.0577733486324L299.6531998770578,75.30458252396465L304.43489987509594,73.51434010905126L309.21659987313404,74.34244431281536L313.9982998711722,76.92941716380807L318.77999986921037,78.42323619590712L323.56169986724854,78.5485773262705L328.34339986528664,83.00489257851245L333.12509986332486,80.54263481292423L337.906799861363,78.34741828902571L342.6884998594012,78.04964802028411L347.47019985743935,78.0324282762536L352.25189985547746,76.50051347433867L357.0335998535156,75.90259887542555L361.8152998515538,75.78270420531959L366.59699984959195,76.73700391735338L371.37869984763006,80.47371642888834L376.1603998456682,84.47747491279529L380.9420998437064,89.99346547048884L385.72379984174455,93.81959324807849L390.5054998397827,94.39480301541283L395.2871998378208,91.50912990297377L400.06889983585904,89.4266980483435L404.8505998338972,95.18257388767108L409.63229983193537,107.108443750003L414.41399982997353,116.15948223409521L419.19569982801164,127.96181290315084L423.9773998260498,129.6816786663711L428.75909982408797,134.02101337788164L433.54079982212613,133.39923817460812L438.32249982016424,136.0307802411824L443.1041998182024,136.86439849131884L447.88589981624057,147.70857289050932L452.66759981427873,148.94164875799402L457.4492998123169,148.28910683338793L462.23099981035506,158.56279799596285L467.0126998083932,161.7758196536946L471.7943998064314,158.7439549766451L476.57609980446955,177.26257444357884L481.35779980250766,196.15161830736525L486.1394998005458,204.61051373736234L490.921199798584,220.22027785349624L495.70289979662215,240.00584686408635L500.4845997946603,244.7381702775199L505.2662997926984,241.23986100195296L510.0479997907366,242.67864106879725L514.8296997887747,243.67599415551285L519.6113997868129,239.31316311167822L524.3930997848511,233.7165444664824L529.1747997828893,230.21291588573348L533.9564997809274,225.74104340695177L538.7381997789655,240.2323963689364L543.5198997770037,239.5068466060133L548.3015997750418,233.87012539790578L553.0832997730801,239.448066759129L557.8649997711182,252.04721611660327L562.6466997691564,238.63967215385L567.4283997671945,236.89699364041462L572.2100997652327,241.51661867307345L576.9917997632708,233.02062829333767L581.7734997613089,225.63926132144618L586.555199759347,224.351998500719L591.3368997573853,234.04382546288852L596.1185997554234,244.96208581816313L600.9002997534616,256.5947725338822L605.6819997514997,246.96855985952098L610.4636997495379,250.72002486351084L615.245399747576,239.68132199938157L620.0270997456142,243.90174620238554L624.8087997436525,246.72951214693398L629.5904997416905,251.49618081968L634.3721997397287,256.6796122895995L639.1538997377668,267.62983490770284L643.935599735805,252.1894021885915L648.7172997338431,246.23213821509097L653.4989997318813,242.0337398364735L658.2806997299194,231.380057769838L663.0623997279577,222.54905709348503L667.8440997259956,217.76958932323197L672.6257997240339,215.37613416457205L677.407499722072,222.6937857152731L682.1891997201102,229.11704845158988L686.9708997181484,230.6482689513784L691.7525997161865,242.27734097342352L696.5342997142247,247.9476852129512L701.3159997122629,249.1188435742429L706.0976997103011,247.80625842352813L710.8793997083392,249.42850254210472L715.6610997063773,246.88916089539993L720.4427997044154,246.5382117052377L725.2244997024536,258.6449226695588L730.0061997004917,269.4524837039264L734.7878996985299,279.1713394000754L739.569599696568,295.33572244859846L744.3512996946063,308.5325716511845L749.1329996926444,311.20620292739125L753.9146996906826,302.93208928906614L758.6963996887207,293.08312536611027L763.4780996867588,272.92598327582306L768.259799684797,256.5314589381507L773.0414996828351,250.73112253385295L777.8231996808734,254.73347852097766L782.6048996789115,264.22731908444337L787.3865996769497,278.8600347705594L792.1682996749878,294.54469697325084L796.949999673026,300.552926157899L801.731699671064,307.0092892588177L806.5133996691022,301.2630765603389L811.2950996671403,292.87601941988447L816.0767996651786,280.8131402691251L820.8584996632168,277.9161479708678L825.6401996612549,284.38200513243453L830.4218996592931,288.2000670344885L835.2035996573312,284.8029593151387L839.9852996553694,278.79024282870756L844.7669996534074,265.92838846070583L849.5486996514456,252.30874211123242L854.3303996494838,236.5441161777239L859.112099647522,232.64624326109748L863.8937996455601,229.46038580988153L868.6754996435983,223.23832009090327L873.4571996416364,219.35758129374358L878.2388996396746,229.5482067405L883.0205996377128,237.13782399582732L887.802299635751,243.9341342710562L892.5839996337891,254.20662973230677L897.3656996318272,264.72546028415957L902.1473996298654,263.01237597305885L906.9290996279035,264.7908094760521L911.7107996259417,274.24315654661183L916.4924996239798,278.4550579073924L921.274199622018,269.14185330910215L926.0558996200562,270.40559526341735L930.8375996180944,267.8197667540616L935.6192996161324,256.66246287406807L940.4009996141706,253.30353867305934L945.1826996122088,255.57973872779232L949.9643996102469,254.51271019066075L954.7460996082851,265.9432511914627L959.5277996063232,279.9053472966342L964.3094996043615,282.2618751921359L969.0911996023996,284.3494319513355L973.8728996004378,287.079617558471L978.6545995984758,276.1818853397913L983.436299596514,255.19721617890465L988.2179995945521,240.59184658779944L992.9996995925903,249.14399426486645L997.7813995906284,250.57529447184152L1002.5630995886667,248.96016438880224L1007.3447995867048,259.2637105835274L1012.126499584743,275.9456799646191L1016.9081995827812,265.6102746433412L1021.6898995808192,262.97978945523727L1026.4715995788574,268.30775037287196L1031.2532995768956,274.37343367548164L1036.0349995749339,258.82552818771086" fill="none"></path></g></g></g></g><g opacity="0.2"><g><g><g><path style="fill: none;" stroke="rgb(0, 153, 136)" stroke-width="2px" d="M117.94859995160785,400.3679469918229L122.730299949646,348.5979732875082L127.51199994768415,299.5557786311201L132.29369994572232,273.6775794159425L137.07539994376046,232.1790691438184L141.85709994179862,211.2778902453311L146.63879993983676,197.75546695043087L151.42049993787492,186.82944641007649L156.20219993591311,173.1523963455021L160.98389993395125,169.4376005510227L165.7655999319894,164.4527040730074L170.54729993002755,149.6668519822185L175.3289999280657,135.90809650649254L180.11069992610385,121.59711242035581L184.892399924142,116.64399325942429L189.67409992218018,116.91558076443852L194.45579992021834,110.49282541188416L199.2374999182565,121.21990641303302L204.01919991629464,120.88099621253696L208.8008999143328,112.19990585906118L213.58259991237094,101.3277211743212L218.3642999104091,104.22308923498792L223.14599990844727,89.92295306414513L227.92769990648543,84.30868525105694L232.7093999045236,82.85840715402287L237.49109990256173,87.48500201396217L242.2727999005999,79.05808918424435L247.05449989863803,81.0139744636727L251.8361998966762,80.17379419625433L256.61789989471436,81.59653212270291L261.3995998927525,65.86018528373273L266.1812998907907,72.58071488578207L270.96299988882885,72.76640084605867L275.74469988686695,76.05676426474287L280.5263998849052,80.33698457415397L285.3080998829433,85.65244256171252L290.08979988098145,79.08732113746072L294.8714998790196,74.43517523318076L299.6531998770578,73.95478073860096L304.43489987509594,72.13601187810019L309.21659987313404,74.98001126615588L313.9982998711722,78.92115732342194L318.77999986921037,79.57334465424884L323.56169986724854,78.64507890451478L328.34339986528664,86.43586095855716L333.12509986332486,78.64691423233864L337.906799861363,76.65729583257286L342.6884998594012,77.82039126470426L347.47019985743935,78.0191705972212L352.25189985547746,75.32107464454583L357.0335998535156,75.44225754705877L361.8152998515538,75.69039591948587L366.59699984959195,77.47173024431737L371.37869984763006,83.35065438024708L376.1603998456682,87.56001463049358L380.9420998437064,94.24029005915548L385.72379984174455,96.76537304144392L390.5054998397827,94.83766363274117L395.2871998378208,89.28741697569757L400.06889983585904,87.823409806283L404.8505998338972,99.61408891440999L409.63229983193537,116.29030815728504L414.41399982997353,123.12798088998929L419.19569982801164,137.0485630642821L423.9773998260498,131.00582310354065L428.75909982408797,137.36191709382342L433.54079982212613,132.92052629244165L438.32249982016424,138.0568347526157L443.1041998182024,137.50621077239734L447.88589981624057,156.05762751643476L452.66759981427873,149.89100805419903L457.4492998123169,147.78670729851424L462.23099981035506,166.4726310149365L467.0126998083932,164.2495619919483L471.7943998064314,156.40968748192554L476.57609980446955,191.52027261723572L481.35779980250766,210.6945104856787L486.1394998005458,211.12311464364328L490.921199798584,232.23841482786483L495.70289979662215,255.23898406693007L500.4845997946603,248.3816405161811L505.2662997926984,238.54647244465804L510.0479997907366,243.78637439459771L514.8296997887747,244.4438677709488L519.6113997868129,235.9541692991684L524.3930997848511,229.4076433856679L529.1747997828893,227.51543193418337L533.9564997809274,222.29809733921718L538.7381997789655,251.38945572904845L543.5198997770037,238.94823749650615L548.3015997750418,229.5303488925487L553.0832997730801,243.74258798414152L557.8649997711182,261.74744615288876L562.6466997691564,228.31704981084528L567.4283997671945,235.55528540440687L572.2100997652327,245.07332113184623L576.9917997632708,226.4794675584968L581.7734997613089,219.95626197140587L586.555199759347,223.36092004582284L591.3368997573853,241.50567453995714L596.1185997554234,253.368180073994L600.9002997534616,265.55091186368355L605.6819997514997,239.5572279774907L610.4636997495379,253.60832092852957L615.245399747576,231.18249767036167L620.0270997456142,247.1510993498311L624.8087997436525,248.90664167946238L629.5904997416905,255.16609386860836L634.3721997397287,260.67039581068786L639.1538997377668,276.06053727739305L643.935599735805,240.30163540485088L648.7172997338431,241.64557214699767L653.4989997318813,238.80134462461754L658.2806997299194,223.17766538225138L663.0623997279577,215.74996807717787L667.8440997259956,214.0898221018867L672.6257997240339,213.53338550259497L677.407499722072,228.3277298295296L682.1891997201102,234.06239232822318L686.9708997181484,231.8271732299767L691.7525997161865,251.23069730898038L696.5342997142247,252.31334847701234L701.3159997122629,250.02053187010466L706.0976997103011,246.7956840154557L710.8793997083392,250.6774869519823L715.6610997063773,244.93409254793698L720.4427997044154,246.2680118862632L725.2244997024536,267.9660187217353L730.0061997004917,277.77334927905895L734.7878996985299,286.65399821038477L739.569599696568,307.78086691958526L744.3512996946063,318.6929776744145L749.1329996926444,313.2646624055327L753.9146996906826,296.56175401000166L758.6963996887207,285.50029473516196L763.4780996867588,257.40676768418604L768.259799684797,243.90912604100475L773.0414996828351,246.2653768066502L777.8231996808734,257.8149384402684L782.6048996789115,271.53673615543016L787.3865996769497,290.12593091827705L792.1682996749878,306.6204988461195L796.949999673026,305.1787309283803L801.731699671064,311.98011748695865L806.5133996691022,296.8390012969083L811.2950996671403,286.41872763918064L816.0767996651786,271.52579083446966L820.8584996632168,275.6857202722096L825.6401996612549,289.3601429470921L830.4218996592931,291.1396368174857L835.2035996573312,282.1874870002411L839.9852996553694,274.16098323295967L844.7669996534074,256.02589881454526L849.5486996514456,241.8228197005759L854.3303996494838,224.4067493085625L859.112099647522,229.645226059801L863.8937996455601,227.00755750673298L868.6754996435983,218.44788011257486L873.4571996416364,216.36975584814274L878.2388996396746,237.3940865092417L883.0205996377128,242.98115763488462L887.802299635751,249.16669173959522L892.5839996337891,262.11554216707486L897.3656996318272,272.8240289391259L902.1473996298654,261.6934526538928L906.9290996279035,266.160045889861L911.7107996259417,281.5206273000517L916.4924996239798,281.69784922055976L921.274199622018,261.9715099458167L926.0558996200562,271.3785647326689L930.8375996180944,265.828907636239L935.6192996161324,248.07232625849778L940.4009996141706,250.71746428821194L945.1826996122088,257.33221133630354L949.9643996102469,253.69119264437361L954.7460996082851,274.7437562097793L959.5277996063232,290.65492571389007L964.3094996043615,284.07619312938056L969.0911996023996,285.956665916383L973.8728996004378,289.1816188666196L978.6545995984758,267.79159593248926L983.436299596514,239.04087797539017L988.2179995945521,229.34700451323164L992.9996995925903,255.72839114898L997.7813995906284,251.67726896747723L1002.5630995886667,247.71665715672773L1007.3447995867048,267.19652933521843L1012.126499584743,288.78932010758353L1016.9081995827812,257.6529271835964L1021.6898995808192,260.95454864669705L1026.4715995788574,272.40980877848455L1031.2532995768956,279.04347303235807L1036.0349995749339,246.85501688296705" fill="none"></path></g></g></g></g></g></g><g transform="translate(61, 377)" clip-path="url(#clip_1)"><clipPath id="clip_1"><rect width="1115" height="22"></rect></clipPath><g><g><line x1="0" y1="0" x2="0" y2="5" style="visibility: inherit;" fill="rgb(0, 0, 0)" stroke="rgb(204, 204, 204)" stroke-width="1px"></line><line x1="79.69499996730259" y1="0" x2="79.69499996730259" y2="5" style="visibility: inherit;" fill="rgb(0, 0, 0)" stroke="rgb(204, 204, 204)" stroke-width="1px"></line><line x1="159.38999993460519" y1="0" x2="159.38999993460519" y2="5" style="visibility: inherit;" fill="rgb(0, 0, 0)" stroke="rgb(204, 204, 204)" stroke-width="1px"></line><line x1="239.08499990190776" y1="0" x2="239.08499990190776" y2="5" style="visibility: inherit;" fill="rgb(0, 0, 0)" stroke="rgb(204, 204, 204)" stroke-width="1px"></line><line x1="318.77999986921037" y1="0" x2="318.77999986921037" y2="5" style="visibility: inherit;" fill="rgb(0, 0, 0)" stroke="rgb(204, 204, 204)" stroke-width="1px"></line><line x1="398.474999836513" y1="0" x2="398.474999836513" y2="5" style="visibility: inherit;" fill="rgb(0, 0, 0)" stroke="rgb(204, 204, 204)" stroke-width="1px"></line><line x1="478.16999980381553" y1="0" x2="478.16999980381553" y2="5" style="visibility: inherit;" fill="rgb(0, 0, 0)" stroke="rgb(204, 204, 204)" stroke-width="1px"></line><line x1="557.8649997711182" y1="0" x2="557.8649997711182" y2="5" style="visibility: inherit;" fill="rgb(0, 0, 0)" stroke="rgb(204, 204, 204)" stroke-width="1px"></line><line x1="637.5599997384207" y1="0" x2="637.5599997384207" y2="5" style="visibility: inherit;" fill="rgb(0, 0, 0)" stroke="rgb(204, 204, 204)" stroke-width="1px"></line><line x1="717.2549997057234" y1="0" x2="717.2549997057234" y2="5" style="visibility: inherit;" fill="rgb(0, 0, 0)" stroke="rgb(204, 204, 204)" stroke-width="1px"></line><line x1="796.949999673026" y1="0" x2="796.949999673026" y2="5" style="visibility: inherit;" fill="rgb(0, 0, 0)" stroke="rgb(204, 204, 204)" stroke-width="1px"></line><line x1="876.6449996403285" y1="0" x2="876.6449996403285" y2="5" style="visibility: inherit;" fill="rgb(0, 0, 0)" stroke="rgb(204, 204, 204)" stroke-width="1px"></line><line x1="956.3399996076311" y1="0" x2="956.3399996076311" y2="5" style="visibility: inherit;" fill="rgb(0, 0, 0)" stroke="rgb(204, 204, 204)" stroke-width="1px"></line><line x1="1036.0349995749339" y1="0" x2="1036.0349995749339" y2="5" style="visibility: inherit;" fill="rgb(0, 0, 0)" stroke="rgb(204, 204, 204)" stroke-width="1px"></line><line x1="1115.7299995422363" y1="0" x2="1115.7299995422363" y2="5" style="visibility: inherit;" fill="rgb(0, 0, 0)" stroke="rgb(204, 204, 204)" stroke-width="1px"></line></g><g transform="translate(0, 8)"><text style="text-anchor: middle; visibility: hidden; font-family: &quot;Helvetica Neue&quot;, sans-serif; font-size: 12px; font-weight: 200;" x="0" y="0" dx="0em" dy="0.95em" fill="rgb(50, 49, 63)" stroke="none" stroke-width="1px">-2M</text><text style="text-anchor: middle; visibility: hidden; font-family: &quot;Helvetica Neue&quot;, sans-serif; font-size: 12px; font-weight: 200;" x="79.69499996730259" y="0" dx="0em" dy="0.95em" fill="rgb(50, 49, 63)" stroke="none" stroke-width="1px">0</text><text style="text-anchor: middle; visibility: hidden; font-family: &quot;Helvetica Neue&quot;, sans-serif; font-size: 12px; font-weight: 200;" x="159.38999993460519" y="0" dx="0em" dy="0.95em" fill="rgb(50, 49, 63)" stroke="none" stroke-width="1px">2M</text><text style="text-anchor: middle; visibility: hidden; font-family: &quot;Helvetica Neue&quot;, sans-serif; font-size: 12px; font-weight: 200;" x="239.08499990190776" y="0" dx="0em" dy="0.95em" fill="rgb(50, 49, 63)" stroke="none" stroke-width="1px">4M</text><text style="text-anchor: middle; visibility: hidden; font-family: &quot;Helvetica Neue&quot;, sans-serif; font-size: 12px; font-weight: 200;" x="318.77999986921037" y="0" dx="0em" dy="0.95em" fill="rgb(50, 49, 63)" stroke="none" stroke-width="1px">6M</text><text style="text-anchor: middle; visibility: hidden; font-family: &quot;Helvetica Neue&quot;, sans-serif; font-size: 12px; font-weight: 200;" x="398.474999836513" y="0" dx="0em" dy="0.95em" fill="rgb(50, 49, 63)" stroke="none" stroke-width="1px">8M</text><text style="text-anchor: middle; visibility: hidden; font-family: &quot;Helvetica Neue&quot;, sans-serif; font-size: 12px; font-weight: 200;" x="478.16999980381553" y="0" dx="0em" dy="0.95em" fill="rgb(50, 49, 63)" stroke="none" stroke-width="1px">10M</text><text style="text-anchor: middle; visibility: hidden; font-family: &quot;Helvetica Neue&quot;, sans-serif; font-size: 12px; font-weight: 200;" x="557.8649997711182" y="0" dx="0em" dy="0.95em" fill="rgb(50, 49, 63)" stroke="none" stroke-width="1px">12M</text><text style="text-anchor: middle; visibility: hidden; font-family: &quot;Helvetica Neue&quot;, sans-serif; font-size: 12px; font-weight: 200;" x="637.5599997384207" y="0" dx="0em" dy="0.95em" fill="rgb(50, 49, 63)" stroke="none" stroke-width="1px">14M</text><text style="text-anchor: middle; visibility: hidden; font-family: &quot;Helvetica Neue&quot;, sans-serif; font-size: 12px; font-weight: 200;" x="717.2549997057234" y="0" dx="0em" dy="0.95em" fill="rgb(50, 49, 63)" stroke="none" stroke-width="1px">16M</text><text style="text-anchor: middle; visibility: hidden; font-family: &quot;Helvetica Neue&quot;, sans-serif; font-size: 12px; font-weight: 200;" x="796.949999673026" y="0" dx="0em" dy="0.95em" fill="rgb(50, 49, 63)" stroke="none" stroke-width="1px">18M</text><text style="text-anchor: middle; visibility: hidden; font-family: &quot;Helvetica Neue&quot;, sans-serif; font-size: 12px; font-weight: 200;" x="876.6449996403285" y="0" dx="0em" dy="0.95em" fill="rgb(50, 49, 63)" stroke="none" stroke-width="1px">20M</text><text style="text-anchor: middle; visibility: hidden; font-family: &quot;Helvetica Neue&quot;, sans-serif; font-size: 12px; font-weight: 200;" x="956.3399996076311" y="0" dx="0em" dy="0.95em" fill="rgb(50, 49, 63)" stroke="none" stroke-width="1px">22M</text><text style="text-anchor: middle; visibility: hidden; font-family: &quot;Helvetica Neue&quot;, sans-serif; font-size: 12px; font-weight: 200;" x="1036.0349995749339" y="0" dx="0em" dy="0.95em" fill="rgb(50, 49, 63)" stroke="none" stroke-width="1px">24M</text><text style="text-anchor: middle; visibility: hidden; font-family: &quot;Helvetica Neue&quot;, sans-serif; font-size: 12px; font-weight: 200;" x="1115.7299995422363" y="0" dx="0em" dy="0.95em" fill="rgb(50, 49, 63)" stroke="none" stroke-width="1px">26M</text></g><line x1="0" y1="0" x2="1115.7299995422363" y2="0" fill="rgb(0, 0, 0)" stroke="rgb(204, 204, 204)" stroke-width="1px"></line></g></g></g></g></svg>