<svg viewBox="0 0 1177.5 400" xmlns="http://www.w3.org/2000/svg"><g><g><g><g><g><line x1="61.77000045776367" y1="377.9749994277954" x2="56.77000045776367" y2="377.9749994277954" style="visibility: inherit;" fill="rgb(0, 0, 0)" stroke="rgb(204, 204, 204)" stroke-width="1px"></line><line x1="61.77000045776367" y1="340.17749948501586" x2="56.77000045776367" y2="340.17749948501586" style="visibility: inherit;" fill="rgb(0, 0, 0)" stroke="rgb(204, 204, 204)" stroke-width="1px"></line><line x1="61.77000045776367" y1="302.3799995422363" x2="56.77000045776367" y2="302.3799995422363" style="visibility: inherit;" fill="rgb(0, 0, 0)" stroke="rgb(204, 204, 204)" stroke-width="1px"></line><line x1="61.77000045776367" y1="264.5824995994568" x2="56.77000045776367" y2="264.5824995994568" style="visibility: inherit;" fill="rgb(0, 0, 0)" stroke="rgb(204, 204, 204)" stroke-width="1px"></line><line x1="61.77000045776367" y1="226.78499965667723" x2="56.77000045776367" y2="226.78499965667723" style="visibility: inherit;" fill="rgb(0, 0, 0)" stroke="rgb(204, 204, 204)" stroke-width="1px"></line><line x1="61.77000045776367" y1="188.9874997138977" x2="56.77000045776367" y2="188.9874997138977" style="visibility: inherit;" fill="rgb(0, 0, 0)" stroke="rgb(204, 204, 204)" stroke-width="1px"></line><line x1="61.77000045776367" y1="151.18999977111818" x2="56.77000045776367" y2="151.18999977111818" style="visibility: inherit;" fill="rgb(0, 0, 0)" stroke="rgb(204, 204, 204)" stroke-width="1px"></line><line x1="61.77000045776367" y1="113.39249982833866" x2="56.77000045776367" y2="113.39249982833866" style="visibility: inherit;" fill="rgb(0, 0, 0)" stroke="rgb(204, 204, 204)" stroke-width="1px"></line><line x1="61.77000045776367" y1="75.59499988555905" x2="56.77000045776367" y2="75.59499988555905" style="visibility: inherit;" fill="rgb(0, 0, 0)" stroke="rgb(204, 204, 204)" stroke-width="1px"></line><line x1="61.77000045776367" y1="37.79749994277955" x2="56.77000045776367" y2="37.79749994277955" style="visibility: inherit;" fill="rgb(0, 0, 0)" stroke="rgb(204, 204, 204)" stroke-width="1px"></line><line x1="61.77000045776367" y1="0" x2="56.77000045776367" y2="0" style="visibility: inherit;" fill="rgb(0, 0, 0)" stroke="rgb(204, 204, 204)" stroke-width="1px"></line></g><g transform="translate(51.77000045776367, 0)"><text style="text-anchor: end; visibility: hidden; font-family: &quot;Helvetica Neue&quot;, sans-serif; font-size: 12px; font-weight: 200;" x="0" y="377.9749994277954" dx="0em" dy="0.3em" fill="rgb(50, 49, 63)" stroke="none" stroke-width="1px">-5e+3</text><text style="text-anchor: end; visibility: inherit; font-family: &quot;Helvetica Neue&quot;, sans-serif; font-size: 12px; font-weight: 200;" x="0" y="340.17749948501586" dx="0em" dy="0.3em" fill="rgb(50, 49, 63)" stroke="none" stroke-width="1px">-4e+3</text><text style="text-anchor: end; visibility: inherit; font-family: &quot;Helvetica Neue&quot;, sans-serif; font-size: 12px; font-weight: 200;" x="0" y="302.3799995422363" dx="0em" dy="0.3em" fill="rgb(50, 49, 63)" stroke="none" stroke-width="1px">-3e+3</text><text style="text-anchor: end; visibility: inherit; font-family: &quot;Helvetica Neue&quot;, sans-serif; font-size: 12px; font-weight: 200;" x="0" y="264.5824995994568" dx="0em" dy="0.3em" fill="rgb(50, 49, 63)" stroke="none" stroke-width="1px">-2e+3</text><text style="text-anchor: end; visibility: inherit; font-family: &quot;Helvetica Neue&quot;, sans-serif; font-size: 12px; font-weight: 200;" x="0" y="226.78499965667723" dx="0em" dy="0.3em" fill="rgb(50, 49, 63)" stroke="none" stroke-width="1px">-1e+3</text><text style="text-anchor: end; visibility: inherit; font-family: &quot;Helvetica Neue&quot;, sans-serif; font-size: 12px; font-weight: 200;" x="0" y="188.9874997138977" dx="0em" dy="0.3em" fill="rgb(50, 49, 63)" stroke="none" stroke-width="1px">0</text><text style="text-anchor: end; visibility: inherit; font-family: &quot;Helvetica Neue&quot;, sans-serif; font-size: 12px; font-weight: 200;" x="0" y="151.18999977111818" dx="0em" dy="0.3em" fill="rgb(50, 49, 63)" stroke="none" stroke-width="1px">1e+3</text><text style="text-anchor: end; visibility: inherit; font-family: &quot;Helvetica Neue&quot;, sans-serif; font-size: 12px; font-weight: 200;" x="0" y="113.39249982833866" dx="0em" dy="0.3em" fill="rgb(50, 49, 63)" stroke="none" stroke-width="1px">2e+3</text><text style="text-anchor: end; visibility: inherit; font-family: &quot;Helvetica Neue&quot;, sans-serif; font-size: 12px; font-weight: 200;" x="0" y="75.59499988555905" dx="0em" dy="0.3em" fill="rgb(50, 49, 63)" stroke="none" stroke-width="1px">3e+3</text><text style="text-anchor: end; visibility: inherit; font-family: &quot;Helvetica Neue&quot;, sans-serif; font-size: 12px; font-weight: 200;" x="0" y="37.79749994277955" dx="0em" dy="0.3em" fill="rgb(50, 49, 63)" stroke="none" stroke-width="1px">4e+3</text><text style="text-anchor: end; visibility: hidden; font-family: &quot;Helvetica Neue&quot;, sans-serif; font-size: 12px; font-weight: 200;" x="0" y="0" dx="0em" dy="0.3em" fill="rgb(50, 49, 63)" stroke="none" stroke-width="1px">5e+3</text></g><line x1="61.77000045776367" y1="0" x2="61.77000045776367" y2="377.9749994277954" fill="rgb(0, 0, 0)" stroke="rgb(204, 204, 204)" stroke-width="1px"></line></g></g><g transform="translate(61, 0)" clip-path="url(#clip_0)"><clipPath id="clip_0"><rect width="1115" height="377"></rect></clipPath><g><g><g><line x1="0" y1="0" x2="0" y2="377.9749994277954" fill="rgb(0, 0, 0)" stroke="rgb(60, 60, 60)" stroke-width="1px" opacity="0.25"></line><line x1="79.69499996730259" y1="0" x2="79.69499996730259" y2="377.9749994277954" fill="rgb(0, 0, 0)" stroke="rgb(60, 60, 60)" stroke-width="1px" opacity="0.25"></line><line x1="159.38999993460519" y1="0" x2="159.38999993460519" y2="377.9749994277954" fill="rgb(0, 0, 0)" stroke="rgb(60, 60, 60)" stroke-width="1px" opacity="0.25"></line><line x1="239.08499990190776" y1="0" x2="239.08499990190776" y2="377.9749994277954" fill="rgb(0, 0, 0)" stroke="rgb(60, 60, 60)" stroke-width="1px" opacity="0.25"></line><line x1="318.77999986921037" y1="0" x2="318.77999986921037" y2="377.9749994277954" fill="rgb(0, 0, 0)" stroke="rgb(60, 60, 60)" stroke-width="1px" opacity="0.25"></line><line x1="398.474999836513" y1="0" x2="398.474999836513" y2="377.9749994277954" fill="rgb(0, 0, 0)" stroke="rgb(60, 60, 60)" stroke-width="1px" opacity="0.25"></line><line x1="478.16999980381553" y1="0" x2="478.16999980381553" y2="377.9749994277954" fill="rgb(0, 0, 0)" stroke="rgb(60, 60, 60)" stroke-width="1px" opacity="0.25"></line><line x1="557.8649997711182" y1="0" x2="557.8649997711182" y2="377.9749994277954" fill="rgb(0, 0, 0)" stroke="rgb(60, 60, 60)" stroke-width="1px" opacity="0.25"></line><line x1="637.5599997384207" y1="0" x2="637.5599997384207" y2="377.9749994277954" fill="rgb(0, 0, 0)" stroke="rgb(60, 60, 60)" stroke-width="1px" opacity="0.25"></line><line x1="717.2549997057234" y1="0" x2="717.2549997057234" y2="377.9749994277954" fill="rgb(0, 0, 0)" stroke="rgb(60, 60, 60)" stroke-width="1px" opacity="0.25"></line><line x1="796.949999673026" y1="0" x2="796.949999673026" y2="377.9749994277954" fill="rgb(0, 0, 0)" stroke="rgb(60, 60, 60)" stroke-width="1px" opacity="0.25"></line><line x1="876.6449996403285" y1="0" x2="876.6449996403285" y2="377.9749994277954" fill="rgb(0, 0, 0)" stroke="rgb(60, 60, 60)" stroke-width="1px" opacity="0.25"></line><line x1="956.3399996076311" y1="0" x2="956.3399996076311" y2="377.9749994277954" fill="rgb(0, 0, 0)" stroke="rgb(60, 60, 60)" stroke-width="1px" opacity="0.25"></line><line x1="1036.0349995749339" y1="0" x2="1036.0349995749339" y2="377.9749994277954" fill="rgb(0, 0, 0)" stroke="rgb(60, 60, 60)" stroke-width="1px" opacity="0.25"></line><line x1="1115.7299995422363" y1="0" x2="1115.7299995422363" y2="377.9749994277954" fill="rgb(0, 0, 0)" stroke="rgb(60, 60, 60)" stroke-width="1px" opacity="0.25"></line></g><g><line x1="0" y1="377.9749994277954" x2="1115.7299995422363" y2="377.9749994277954" fill="rgb(0, 0, 0)" stroke="rgb(60, 60, 60)" stroke-width="1px" opacity="0.25"></line><line x1="0" y1="340.17749948501586" x2="1115.7299995422363" y2="340.17749948501586" fill="rgb(0, 0, 0)" stroke="rgb(60, 60, 60)" stroke-width="1px" opacity="0.25"></line><line x1="0" y1="302.3799995422363" x2="1115.7299995422363" y2="302.3799995422363" fill="rgb(0, 0, 0)" stroke="rgb(60, 60, 60)" stroke-width="1px" opacity="0.25"></line><line x1="0" y1="264.5824995994568" x2="1115.7299995422363" y2="264.5824995994568" fill="rgb(0, 0, 0)" stroke="rgb(60, 60, 60)" stroke-width="1px" opacity="0.25"></line><line x1="0" y1="226.78499965667723" x2="1115.7299995422363" y2="226.78499965667723" fill="rgb(0, 0, 0)" stroke="rgb(60, 60, 60)" stroke-width="1px" opacity="0.25"></line><line x1="0" y1="188.9874997138977" x2="1115.7299995422363" y2="188.9874997138977" fill="rgb(0, 0, 0)" stroke="rgb(60, 60, 60)" stroke-width="1px" opacity="0.25"></line><line x1="0" y1="151.18999977111818" x2="1115.7299995422363" y2="151.18999977111818" fill="rgb(0, 0, 0)" stroke="rgb(60, 60, 60)" stroke-width="1px" opacity="0.25"></line><line x1="0" y1="113.39249982833866" x2="1115.7299995422363" y2="113.39249982833866" fill="rgb(0, 0, 0)" stroke="rgb(60, 60, 60)" stroke-width="1px" opacity="0.25"></line><line x1="0" y1="75.59499988555905" x2="1115.7299995422363" y2="75.59499988555905" fill="rgb(0, 0, 0)" stroke="rgb(60, 60, 60)" stroke-width="1px" opacity="0.25"></line><line x1="0" y1="37.79749994277955" x2="1115.7299995422363" y2="37.79749994277955" fill="rgb(0, 0, 0)" stroke="rgb(60, 60, 60)" stroke-width="1px" opacity="0.25"></line><line x1="0" y1="0" x2="1115.7299995422363" y2="0" fill="rgb(0, 0, 0)" stroke="rgb(60, 60, 60)" stroke-width="1px" opacity="0.25"></line></g></g></g><g><g><line x1="0" y1="188.9874997138977" x2="1115.7299995422363" y2="188.9874997138977" fill="rgb(0, 0, 0)" stroke="rgb(153, 153, 153)" stroke-width="1.5px"></line></g></g><g><g><line x1="79.69499996730259" y1="0" x2="79.69499996730259" y2="377.9749994277954" fill="rgb(0, 0, 0)" stroke="rgb(153, 153, 153)" stroke-width="1.5px"></line></g></g><g><g><g><g><g><path style="fill: none;" stroke="rgb(187, 187, 187)" stroke-width="2px" d="M117.94859995160785,420.18183471122495L122.730299949646,362.62226345297296L127.51199994768415,313.9278559661761L132.29369994572232,271.91818882955687L137.07539994376046,240.36459076187532L141.85709994179862,215.4440310584381L146.63879993983676,190.09126651786508L151.42049993787492,170.97516014052437L156.20219993591311,157.28926866372845L160.98389993395125,147.89330553710604L165.7655999319894,141.55922755375252L170.54729993002755,133.2001821559351L175.3289999280657,123.98141489825196L180.11069992610385,115.12723748296452L184.892399924142,105.36603297025937L189.67409992218018,95.13127783551744L194.45579992021834,89.78563451985247L199.2374999182565,86.07433542685482L204.01919991629464,82.74345455322788L208.8008999143328,79.15278431386969L213.58259991237094,74.57023151340547L218.3642999104091,69.92338408877231L223.14599990844727,66.84000293903239L227.92769990648543,65.45147455963235L232.7093999045236,65.83864864475225L237.49109990256173,63.57691196429744L242.2727999005999,62.62712325842716L247.05449989863803,59.901701451351016L251.8361998966762,55.188054972905945L256.61789989471436,52.12625233462188L261.3995998927525,53.70335790719838L266.1812998907907,54.52082745648522L270.96299988882885,55.06073335519602L275.74469988686695,57.612929135934564L280.5263998849052,59.93569996885566L285.3080998829433,58.49182377623396L290.08979988098145,59.18023452158826L294.8714998790196,63.780075560556554L299.6531998770578,66.1429200121338L304.43489987509594,65.86615306074697L309.21659987313404,68.35132358977597L313.9982998711722,69.71495369889772L318.77999986921037,68.1370161622624L323.56169986724854,65.8424270656613L328.34339986528664,70.07712966552504L333.12509986332486,77.32275201256533L337.906799861363,81.3498483524146L342.6884998594012,86.8911832136339L347.47019985743935,93.62603999630574L352.25189985547746,98.6115429541843L357.0335998535156,104.8701967045734L361.8152998515538,113.06004126928838L366.59699984959195,126.88478896007487L371.37869984763006,138.92741485850374L376.1603998456682,137.87225538280896L380.9420998437064,138.41412169160233L385.72379984174455,148.4788860465007L390.5054998397827,161.5126271249053L395.2871998378208,181.13851230416526L400.06889983585904,206.89300600657288L404.8505998338972,214.84475740308648L409.63229983193537,230.34260630428315L414.41399982997353,239.85175252229095L419.19569982801164,239.79057038940863L423.9773998260498,245.600334983943L428.75909982408797,254.40034062416032L433.54079982212613,242.5255133978426L438.32249982016424,230.54764194474504L443.1041998182024,214.3246173702907L447.88589981624057,196.3853973441427L452.66759981427873,181.48292307840612L457.4492998123169,172.99092728517428L462.23099981035506,175.2271637579402L467.0126998083932,179.57465200105875L471.7943998064314,180.54539060554345L476.57609980446955,197.69588465957798L481.35779980250766,214.7598376013539L486.1394998005458,215.14151113158832L490.921199798584,214.8806932699769L495.70289979662215,223.99529002547666L500.4845997946603,212.0435318228342L505.2662997926984,202.2518411157356L510.0479997907366,194.44767151550403L514.8296997887747,195.03980251659985L519.6113997868129,191.70866688204086L524.3930997848511,198.53149565538632L529.1747997828893,204.4022369270319L533.9564997809274,227.33055369350618L538.7381997789655,245.96761538691325L543.5198997770037,248.66083771905053L548.3015997750418,246.71423904375914L553.0832997730801,248.8386872499591L557.8649997711182,239.39059691118837L562.6466997691564,232.5321858737716L567.4283997671945,241.90599015891354L572.2100997652327,248.2027773701553L576.9917997632708,255.45030448841763L581.7734997613089,257.17229780310583L586.555199759347,245.00709996433508L591.3368997573853,226.70093352619432L596.1185997554234,220.28504972547094L600.9002997534616,199.7745768420687L605.6819997514997,178.08864013207307L610.4636997495379,172.37331445075122L615.245399747576,174.67761311319202L620.0270997456142,168.63600660844233L624.8087997436525,162.0844507508764L629.5904997416905,160.91381035437328L634.3721997397287,158.67638243020315L639.1538997377668,149.1112820735344L643.935599735805,151.49781489873806L648.7172997338431,152.2704625648765L653.4989997318813,169.95685457287314L658.2806997299194,185.1200024781088L663.0623997279577,188.58873244724847L667.8440997259956,196.62152872061307L672.6257997240339,215.15471679126165L677.407499722072,218.32593601129972L682.1891997201102,215.08630082156876L686.9708997181484,225.88631242519818L691.7525997161865,233.15564542812348L696.5342997142247,226.58218868276026L701.3159997122629,238.1570370476168L706.0976997103011,244.29305065577168L710.8793997083392,257.10035419674495L715.6610997063773,262.00834535564735L720.4427997044154,268.9124423353717L725.2244997024536,261.53134331655554L730.0061997004917,256.4376473716345L734.7878996985299,248.7610010607738L739.569599696568,234.89736337696286L744.3512996946063,227.65765155331465L749.1329996926444,225.40115230146714L753.9146996906826,230.52635943009307L758.6963996887207,228.48436553580737L763.4780996867588,247.9034214139832L768.259799684797,268.63184974082077L773.0414996828351,280.15971813338206L777.8231996808734,286.6423602544885L782.6048996789115,297.4453628963925L787.3865996769497,295.69821176714134L792.1682996749878,286.0934476668673L796.949999673026,273.4464849560191L801.731699671064,272.06894993959247L806.5133996691022,257.38739892597175L811.2950996671403,254.4498463973091L816.0767996651786,255.51034620660454L820.8584996632168,246.8492693793359L825.6401996612549,241.0440906365257L830.4218996592931,241.3978328051221L835.2035996573312,241.23221885973166L839.9852996553694,226.07329757430443L844.7669996534074,238.36110493887128L849.5486996514456,237.41046436357647L854.3303996494838,236.20443278210718L859.112099647522,221.79672463463865L863.8937996455601,220.79111644460232L868.6754996435983,223.14032035814392L873.4571996416364,218.94979622347688L878.2388996396746,223.8520747832323L883.0205996377128,223.6856155893886L887.802299635751,228.92177683430216L892.5839996337891,220.2811018296649L897.3656996318272,245.5243582886627L902.1473996298654,248.7426742783857L906.9290996279035,265.64492127951416L911.7107996259417,267.46996163494146L916.4924996239798,269.7774366650899L921.274199622018,263.308226433614L926.0558996200562,263.64331835203143L930.8375996180944,246.121362341645L935.6192996161324,239.1122392566449L940.4009996141706,242.49789795702523L945.1826996122088,235.18225652066593L949.9643996102469,234.71168978915958L954.7460996082851,245.5313773347556L959.5277996063232,260.4082036606304L964.3094996043615,253.79535289838654L969.0911996023996,251.27557735282727L973.8728996004378,245.73314366093032L978.6545995984758,247.01006972591028L983.436299596514,248.02115840236314L988.2179995945521,250.21817508366001L992.9996995925903,254.83775266637753L997.7813995906284,261.8778835909613L1002.5630995886667,259.9016419221394L1007.3447995867048,249.03065361666467L1012.126499584743,244.73622382944535L1016.9081995827812,233.75146430886247L1021.6898995808192,231.40611107579684L1026.4715995788574,227.32542365909208L1031.2532995768956,219.57658391902652L1036.0349995749339,217.0164046572549" fill="none"></path></g></g></g></g><g opacity="0.2"><g><g><g><path style="fill: none;" stroke="rgb(187, 187, 187)" stroke-width="2px" d="M113.16689995356968,437.7787095264694L117.94859995160785,370.2828944406609L122.730299949646,318.3633035817604L127.51199994768415,276.45837995684445L132.29369994572232,239.58230942398592L137.07539994376046,216.07367632908176L141.85709994179862,196.25828623060065L146.63879993983676,170.5722712153172L151.42049993787492,156.2575777675969L156.20219993591311,146.7523831829875L160.98389993395125,140.6592573215452L165.7655999319894,136.68255153136178L170.54729993002755,126.76445893987011L175.3289999280657,116.88378089025298L180.11069992610385,108.3103048299289L184.892399924142,97.8507695112906L189.67409992218018,87.25142220006609L194.45579992021834,85.66996225250904L199.2374999182565,83.2169635648163L204.01919991629464,80.1789710511049L208.8008999143328,76.38828598909447L213.58259991237094,71.04207139330612L218.3642999104091,66.34572279751052L223.14599990844727,64.46607231939902L227.92769990648543,64.38243058612716L232.7093999045236,66.13673842709932L237.49109990256173,61.83557487404039L242.2727999005999,61.89587000700578L247.05449989863803,57.80336784767394L251.8361998966762,51.55896432136052L256.61789989471436,49.76893525912902L261.3995998927525,54.917589631217425L266.1812998907907,55.150206666998145L270.96299988882885,55.47641311792029L275.74469988686695,59.57789402906957L280.5263998849052,61.72402795526398L285.3080998829433,57.38016688456952L290.08979988098145,59.71024987420611L294.8714998790196,67.32154609498343L299.6531998770578,67.96210113856932L304.43489987509594,65.6530670008296L309.21659987313404,70.26468497053276L313.9982998711722,70.7648282076907L318.77999986921037,66.92214389954313L323.56169986724854,64.07579652226036L328.34339986528664,73.33747591497769L333.12509986332486,82.90124001426892L337.906799861363,84.4503561538915L342.6884998594012,91.15752067315668L347.47019985743935,98.81128371393805L352.25189985547746,102.44993903679875L357.0335998535156,109.6888062292092L361.8152998515538,119.36549681911316L366.59699984959195,137.5286212529813L371.37869984763006,148.1991710811879L376.1603998456682,137.0598759634688L380.9420998437064,138.8313107966025L385.72379984174455,156.22786391266143L390.5054998397827,171.54745432686278L395.2871998378208,196.24870708819725L400.06889983585904,226.72168699869204L404.8505998338972,220.96690228358813L409.63229983193537,242.2745784671514L414.41399982997353,247.17295359279254L419.19569982801164,239.74346556143726L423.9773998260498,250.0733395832748L428.75909982408797,261.1755662055666L433.54079982212613,233.382947303244L438.32249982016424,221.3257409144841L443.1041998182024,201.83432411385238L447.88589981624057,182.57378546560398L452.66759981427873,170.0093366968213L457.4492998123169,166.45284202843825L462.23099981035506,176.94886794493692L467.0126998083932,182.92183321478717L471.7943998064314,181.29277342492549L476.57609980446955,210.90024733834798L481.35779980250766,227.89757128219023L486.1394998005458,215.43536597345016L490.921199798584,214.67988659776282L495.70289979662215,231.0127229257287L500.4845997946603,202.8417356845166L505.2662997926984,194.71310579257118L510.0479997907366,188.43915155780357L514.8296997887747,195.4956909864701L519.6113997868129,189.1439872341946L524.3930997848511,203.7844700207054L529.1747997828893,208.9221881715732L533.9564997809274,244.98332854911027L538.7381997789655,260.31650359334174L543.5198997770037,250.73438057653675L548.3015997750418,245.21553032915423L553.0832997730801,250.47432436446707L557.8649997711182,232.11640346452418L562.6466997691564,227.25181631399056L567.4283997671945,249.12298991827063L572.2100997652327,253.05074628500518L576.9917997632708,261.03025899539836L581.7734997613089,258.4980802666268L586.555199759347,235.64097419466208L591.3368997573853,212.60680538355498L596.1185997554234,215.3453869762414L600.9002997534616,183.98332780794493L605.6819997514997,161.39238797481983L610.4636997495379,167.9730194571672L615.245399747576,176.45171916303576L620.0270997456142,163.98450425522796L624.8087997436525,157.04033252425495L629.5904997416905,160.01252084556108L634.3721997397287,156.95376093106324L639.1538997377668,141.7470012679576L643.935599735805,153.33523397654974L648.7172997338431,152.86533289190348L653.4989997318813,183.5738112515962L658.2806997299194,196.7942844936442L663.0623997279577,191.25934755623211L667.8440997259956,202.80607098417693L672.6257997240339,229.42363150052208L677.407499722072,220.76749417185994L682.1891997201102,212.59206841885563L686.9708997181484,234.20136560675357L691.7525997161865,238.75238853657044L696.5342997142247,221.52120871066646L701.3159997122629,247.06864596569216L706.0976997103011,249.01723812399712L710.8793997083392,266.96084453360044L715.6610997063773,265.7870642125014L720.4427997044154,274.2279860277259L725.2244997024536,255.84855026667054L730.0061997004917,252.51595226359797L734.7878996985299,242.85066275064207L739.569599696568,224.22358923102L744.3512996946063,222.08371413156783L749.1329996926444,223.66384756774383L753.9146996906826,234.47231536098204L758.6963996887207,226.91221094463165L763.4780996867588,262.8543759396584L768.259799684797,284.59090517829753L773.0414996828351,289.03515663030976L777.8231996808734,291.63342100259706L782.6048996789115,305.7627189127257L787.3865996769497,294.35306001276206L792.1682996749878,278.6986292887802L796.949999673026,263.7094428689059L801.731699671064,271.0083698826976L806.5133996691022,246.08390389778594L811.2950996671403,252.18819091063958L816.0767996651786,256.32683721022136L820.8584996632168,240.18100668931493L825.6401996612549,236.57461673719396L830.4218996592931,241.67018297032467L835.2035996573312,241.1047107778824L839.9852996553694,214.40226968198436L844.7669996534074,247.82162919300683L849.5486996514456,236.678555248084L854.3303996494838,235.27589519283438L859.112099647522,210.704064379508L863.8937996455601,220.0168871301496L868.6754996435983,224.94899947741936L873.4571996416364,215.72346348262707L878.2388996396746,227.62639544428288L883.0205996377128,223.5574567410311L887.802299635751,232.95315761578428L892.5839996337891,213.62854673759904L897.3656996318272,264.95943184559025L902.1473996298654,251.2204927837476L906.9290996279035,278.6581556963122L911.7107996259417,268.8750812006244L916.4924996239798,271.5539882369742L921.274199622018,258.32750705185816L926.0558996200562,263.90130947506077L930.8375996180944,232.63100682922362L935.6192996161324,233.71583475757402L940.4009996141706,245.1045555405039L945.1826996122088,229.54986001656633L949.9643996102469,234.3493950489733L954.7460996082851,253.86157925039146L959.5277996063232,271.862043398251L964.3094996043615,248.7040430194908L969.0911996023996,249.33557317173296L973.8728996004378,241.4659601990274L978.6545995984758,247.9931897936382L983.436299596514,248.79960720635782L988.2179995945521,251.9096835020036L992.9996995925903,258.39441859289457L997.7813995906284,267.298161382455L1002.5630995886667,258.38011072578973L1007.3447995867048,240.66095465581247L1012.126499584743,241.42989293132075L1016.9081995827812,225.29417158062606L1021.6898995808192,229.6003966397198L1026.4715995788574,224.18365547100962L1031.2532995768956,213.61066305720618L1036.0349995749339,215.0452931902272" fill="none"></path></g></g></g></g></g></g><g transform="translate(61, 377)" clip-path="url(#clip_1)"><clipPath id="clip_1"><rect width="1115" height="22"></rect></clipPath><g><g><line x1="0" y1="0" x2="0" y2="5" style="visibility: inherit;" fill="rgb(0, 0, 0)" stroke="rgb(204, 204, 204)" stroke-width="1px"></line><line x1="79.69499996730259" y1="0" x2="79.69499996730259" y2="5" style="visibility: inherit;" fill="rgb(0, 0, 0)" stroke="rgb(204, 204, 204)" stroke-width="1px"></line><line x1="159.38999993460519" y1="0" x2="159.38999993460519" y2="5" style="visibility: inherit;" fill="rgb(0, 0, 0)" stroke="rgb(204, 204, 204)" stroke-width="1px"></line><line x1="239.08499990190776" y1="0" x2="239.08499990190776" y2="5" style="visibility: inherit;" fill="rgb(0, 0, 0)" stroke="rgb(204, 204, 204)" stroke-width="1px"></line><line x1="318.77999986921037" y1="0" x2="318.77999986921037" y2="5" style="visibility: inherit;" fill="rgb(0, 0, 0)" stroke="rgb(204, 204, 204)" stroke-width="1px"></line><line x1="398.474999836513" y1="0" x2="398.474999836513" y2="5" style="visibility: inherit;" fill="rgb(0, 0, 0)" stroke="rgb(204, 204, 204)" stroke-width="1px"></line><line x1="478.16999980381553" y1="0" x2="478.16999980381553" y2="5" style="visibility: inherit;" fill="rgb(0, 0, 0)" stroke="rgb(204, 204, 204)" stroke-width="1px"></line><line x1="557.8649997711182" y1="0" x2="557.8649997711182" y2="5" style="visibility: inherit;" fill="rgb(0, 0, 0)" stroke="rgb(204, 204, 204)" stroke-width="1px"></line><line x1="637.5599997384207" y1="0" x2="637.5599997384207" y2="5" style="visibility: inherit;" fill="rgb(0, 0, 0)" stroke="rgb(204, 204, 204)" stroke-width="1px"></line><line x1="717.2549997057234" y1="0" x2="717.2549997057234" y2="5" style="visibility: inherit;" fill="rgb(0, 0, 0)" stroke="rgb(204, 204, 204)" stroke-width="1px"></line><line x1="796.949999673026" y1="0" x2="796.949999673026" y2="5" style="visibility: inherit;" fill="rgb(0, 0, 0)" stroke="rgb(204, 204, 204)" stroke-width="1px"></line><line x1="876.6449996403285" y1="0" x2="876.6449996403285" y2="5" style="visibility: inherit;" fill="rgb(0, 0, 0)" stroke="rgb(204, 204, 204)" stroke-width="1px"></line><line x1="956.3399996076311" y1="0" x2="956.3399996076311" y2="5" style="visibility: inherit;" fill="rgb(0, 0, 0)" stroke="rgb(204, 204, 204)" stroke-width="1px"></line><line x1="1036.0349995749339" y1="0" x2="1036.0349995749339" y2="5" style="visibility: inherit;" fill="rgb(0, 0, 0)" stroke="rgb(204, 204, 204)" stroke-width="1px"></line><line x1="1115.7299995422363" y1="0" x2="1115.7299995422363" y2="5" style="visibility: inherit;" fill="rgb(0, 0, 0)" stroke="rgb(204, 204, 204)" stroke-width="1px"></line></g><g transform="translate(0, 8)"><text style="text-anchor: middle; visibility: hidden; font-family: &quot;Helvetica Neue&quot;, sans-serif; font-size: 12px; font-weight: 200;" x="0" y="0" dx="0em" dy="0.95em" fill="rgb(50, 49, 63)" stroke="none" stroke-width="1px">-2M</text><text style="text-anchor: middle; visibility: hidden; font-family: &quot;Helvetica Neue&quot;, sans-serif; font-size: 12px; font-weight: 200;" x="79.69499996730259" y="0" dx="0em" dy="0.95em" fill="rgb(50, 49, 63)" stroke="none" stroke-width="1px">0</text><text style="text-anchor: middle; visibility: hidden; font-family: &quot;Helvetica Neue&quot;, sans-serif; font-size: 12px; font-weight: 200;" x="159.38999993460519" y="0" dx="0em" dy="0.95em" fill="rgb(50, 49, 63)" stroke="none" stroke-width="1px">2M</text><text style="text-anchor: middle; visibility: hidden; font-family: &quot;Helvetica Neue&quot;, sans-serif; font-size: 12px; font-weight: 200;" x="239.08499990190776" y="0" dx="0em" dy="0.95em" fill="rgb(50, 49, 63)" stroke="none" stroke-width="1px">4M</text><text style="text-anchor: middle; visibility: hidden; font-family: &quot;Helvetica Neue&quot;, sans-serif; font-size: 12px; font-weight: 200;" x="318.77999986921037" y="0" dx="0em" dy="0.95em" fill="rgb(50, 49, 63)" stroke="none" stroke-width="1px">6M</text><text style="text-anchor: middle; visibility: hidden; font-family: &quot;Helvetica Neue&quot;, sans-serif; font-size: 12px; font-weight: 200;" x="398.474999836513" y="0" dx="0em" dy="0.95em" fill="rgb(50, 49, 63)" stroke="none" stroke-width="1px">8M</text><text style="text-anchor: middle; visibility: hidden; font-family: &quot;Helvetica Neue&quot;, sans-serif; font-size: 12px; font-weight: 200;" x="478.16999980381553" y="0" dx="0em" dy="0.95em" fill="rgb(50, 49, 63)" stroke="none" stroke-width="1px">10M</text><text style="text-anchor: middle; visibility: hidden; font-family: &quot;Helvetica Neue&quot;, sans-serif; font-size: 12px; font-weight: 200;" x="557.8649997711182" y="0" dx="0em" dy="0.95em" fill="rgb(50, 49, 63)" stroke="none" stroke-width="1px">12M</text><text style="text-anchor: middle; visibility: hidden; font-family: &quot;Helvetica Neue&quot;, sans-serif; font-size: 12px; font-weight: 200;" x="637.5599997384207" y="0" dx="0em" dy="0.95em" fill="rgb(50, 49, 63)" stroke="none" stroke-width="1px">14M</text><text style="text-anchor: middle; visibility: hidden; font-family: &quot;Helvetica Neue&quot;, sans-serif; font-size: 12px; font-weight: 200;" x="717.2549997057234" y="0" dx="0em" dy="0.95em" fill="rgb(50, 49, 63)" stroke="none" stroke-width="1px">16M</text><text style="text-anchor: middle; visibility: hidden; font-family: &quot;Helvetica Neue&quot;, sans-serif; font-size: 12px; font-weight: 200;" x="796.949999673026" y="0" dx="0em" dy="0.95em" fill="rgb(50, 49, 63)" stroke="none" stroke-width="1px">18M</text><text style="text-anchor: middle; visibility: hidden; font-family: &quot;Helvetica Neue&quot;, sans-serif; font-size: 12px; font-weight: 200;" x="876.6449996403285" y="0" dx="0em" dy="0.95em" fill="rgb(50, 49, 63)" stroke="none" stroke-width="1px">20M</text><text style="text-anchor: middle; visibility: hidden; font-family: &quot;Helvetica Neue&quot;, sans-serif; font-size: 12px; font-weight: 200;" x="956.3399996076311" y="0" dx="0em" dy="0.95em" fill="rgb(50, 49, 63)" stroke="none" stroke-width="1px">22M</text><text style="text-anchor: middle; visibility: hidden; font-family: &quot;Helvetica Neue&quot;, sans-serif; font-size: 12px; font-weight: 200;" x="1036.0349995749339" y="0" dx="0em" dy="0.95em" fill="rgb(50, 49, 63)" stroke="none" stroke-width="1px">24M</text><text style="text-anchor: middle; visibility: hidden; font-family: &quot;Helvetica Neue&quot;, sans-serif; font-size: 12px; font-weight: 200;" x="1115.7299995422363" y="0" dx="0em" dy="0.95em" fill="rgb(50, 49, 63)" stroke="none" stroke-width="1px">26M</text></g><line x1="0" y1="0" x2="1115.7299995422363" y2="0" fill="rgb(0, 0, 0)" stroke="rgb(204, 204, 204)" stroke-width="1px"></line></g></g></g></g></svg>