<svg viewBox="0 0 1177.5 400" xmlns="http://www.w3.org/2000/svg"><g><g><g><g><g><line x1="61.77000045776367" y1="377.9749994277954" x2="56.77000045776367" y2="377.9749994277954" style="visibility: inherit;" fill="rgb(0, 0, 0)" stroke="rgb(204, 204, 204)" stroke-width="1px"></line><line x1="61.77000045776367" y1="340.17749948501586" x2="56.77000045776367" y2="340.17749948501586" style="visibility: inherit;" fill="rgb(0, 0, 0)" stroke="rgb(204, 204, 204)" stroke-width="1px"></line><line x1="61.77000045776367" y1="302.3799995422363" x2="56.77000045776367" y2="302.3799995422363" style="visibility: inherit;" fill="rgb(0, 0, 0)" stroke="rgb(204, 204, 204)" stroke-width="1px"></line><line x1="61.77000045776367" y1="264.5824995994568" x2="56.77000045776367" y2="264.5824995994568" style="visibility: inherit;" fill="rgb(0, 0, 0)" stroke="rgb(204, 204, 204)" stroke-width="1px"></line><line x1="61.77000045776367" y1="226.78499965667723" x2="56.77000045776367" y2="226.78499965667723" style="visibility: inherit;" fill="rgb(0, 0, 0)" stroke="rgb(204, 204, 204)" stroke-width="1px"></line><line x1="61.77000045776367" y1="188.9874997138977" x2="56.77000045776367" y2="188.9874997138977" style="visibility: inherit;" fill="rgb(0, 0, 0)" stroke="rgb(204, 204, 204)" stroke-width="1px"></line><line x1="61.77000045776367" y1="151.18999977111818" x2="56.77000045776367" y2="151.18999977111818" style="visibility: inherit;" fill="rgb(0, 0, 0)" stroke="rgb(204, 204, 204)" stroke-width="1px"></line><line x1="61.77000045776367" y1="113.39249982833866" x2="56.77000045776367" y2="113.39249982833866" style="visibility: inherit;" fill="rgb(0, 0, 0)" stroke="rgb(204, 204, 204)" stroke-width="1px"></line><line x1="61.77000045776367" y1="75.59499988555905" x2="56.77000045776367" y2="75.59499988555905" style="visibility: inherit;" fill="rgb(0, 0, 0)" stroke="rgb(204, 204, 204)" stroke-width="1px"></line><line x1="61.77000045776367" y1="37.79749994277955" x2="56.77000045776367" y2="37.79749994277955" style="visibility: inherit;" fill="rgb(0, 0, 0)" stroke="rgb(204, 204, 204)" stroke-width="1px"></line><line x1="61.77000045776367" y1="0" x2="56.77000045776367" y2="0" style="visibility: inherit;" fill="rgb(0, 0, 0)" stroke="rgb(204, 204, 204)" stroke-width="1px"></line></g><g transform="translate(51.77000045776367, 0)"><text style="text-anchor: end; visibility: hidden; font-family: &quot;Helvetica Neue&quot;, sans-serif; font-size: 12px; font-weight: 200;" x="0" y="377.9749994277954" dx="0em" dy="0.3em" fill="rgb(50, 49, 63)" stroke="none" stroke-width="1px">-5e+3</text><text style="text-anchor: end; visibility: inherit; font-family: &quot;Helvetica Neue&quot;, sans-serif; font-size: 12px; font-weight: 200;" x="0" y="340.17749948501586" dx="0em" dy="0.3em" fill="rgb(50, 49, 63)" stroke="none" stroke-width="1px">-4e+3</text><text style="text-anchor: end; visibility: inherit; font-family: &quot;Helvetica Neue&quot;, sans-serif; font-size: 12px; font-weight: 200;" x="0" y="302.3799995422363" dx="0em" dy="0.3em" fill="rgb(50, 49, 63)" stroke="none" stroke-width="1px">-3e+3</text><text style="text-anchor: end; visibility: inherit; font-family: &quot;Helvetica Neue&quot;, sans-serif; font-size: 12px; font-weight: 200;" x="0" y="264.5824995994568" dx="0em" dy="0.3em" fill="rgb(50, 49, 63)" stroke="none" stroke-width="1px">-2e+3</text><text style="text-anchor: end; visibility: inherit; font-family: &quot;Helvetica Neue&quot;, sans-serif; font-size: 12px; font-weight: 200;" x="0" y="226.78499965667723" dx="0em" dy="0.3em" fill="rgb(50, 49, 63)" stroke="none" stroke-width="1px">-1e+3</text><text style="text-anchor: end; visibility: inherit; font-family: &quot;Helvetica Neue&quot;, sans-serif; font-size: 12px; font-weight: 200;" x="0" y="188.9874997138977" dx="0em" dy="0.3em" fill="rgb(50, 49, 63)" stroke="none" stroke-width="1px">0</text><text style="text-anchor: end; visibility: inherit; font-family: &quot;Helvetica Neue&quot;, sans-serif; font-size: 12px; font-weight: 200;" x="0" y="151.18999977111818" dx="0em" dy="0.3em" fill="rgb(50, 49, 63)" stroke="none" stroke-width="1px">1e+3</text><text style="text-anchor: end; visibility: inherit; font-family: &quot;Helvetica Neue&quot;, sans-serif; font-size: 12px; font-weight: 200;" x="0" y="113.39249982833866" dx="0em" dy="0.3em" fill="rgb(50, 49, 63)" stroke="none" stroke-width="1px">2e+3</text><text style="text-anchor: end; visibility: inherit; font-family: &quot;Helvetica Neue&quot;, sans-serif; font-size: 12px; font-weight: 200;" x="0" y="75.59499988555905" dx="0em" dy="0.3em" fill="rgb(50, 49, 63)" stroke="none" stroke-width="1px">3e+3</text><text style="text-anchor: end; visibility: inherit; font-family: &quot;Helvetica Neue&quot;, sans-serif; font-size: 12px; font-weight: 200;" x="0" y="37.79749994277955" dx="0em" dy="0.3em" fill="rgb(50, 49, 63)" stroke="none" stroke-width="1px">4e+3</text><text style="text-anchor: end; visibility: hidden; font-family: &quot;Helvetica Neue&quot;, sans-serif; font-size: 12px; font-weight: 200;" x="0" y="0" dx="0em" dy="0.3em" fill="rgb(50, 49, 63)" stroke="none" stroke-width="1px">5e+3</text></g><line x1="61.77000045776367" y1="0" x2="61.77000045776367" y2="377.9749994277954" fill="rgb(0, 0, 0)" stroke="rgb(204, 204, 204)" stroke-width="1px"></line></g></g><g transform="translate(61, 0)" clip-path="url(#clip_0)"><clipPath id="clip_0"><rect width="1115" height="377"></rect></clipPath><g><g><g><line x1="0" y1="0" x2="0" y2="377.9749994277954" fill="rgb(0, 0, 0)" stroke="rgb(60, 60, 60)" stroke-width="1px" opacity="0.25"></line><line x1="79.69499996730259" y1="0" x2="79.69499996730259" y2="377.9749994277954" fill="rgb(0, 0, 0)" stroke="rgb(60, 60, 60)" stroke-width="1px" opacity="0.25"></line><line x1="159.38999993460519" y1="0" x2="159.38999993460519" y2="377.9749994277954" fill="rgb(0, 0, 0)" stroke="rgb(60, 60, 60)" stroke-width="1px" opacity="0.25"></line><line x1="239.08499990190776" y1="0" x2="239.08499990190776" y2="377.9749994277954" fill="rgb(0, 0, 0)" stroke="rgb(60, 60, 60)" stroke-width="1px" opacity="0.25"></line><line x1="318.77999986921037" y1="0" x2="318.77999986921037" y2="377.9749994277954" fill="rgb(0, 0, 0)" stroke="rgb(60, 60, 60)" stroke-width="1px" opacity="0.25"></line><line x1="398.474999836513" y1="0" x2="398.474999836513" y2="377.9749994277954" fill="rgb(0, 0, 0)" stroke="rgb(60, 60, 60)" stroke-width="1px" opacity="0.25"></line><line x1="478.16999980381553" y1="0" x2="478.16999980381553" y2="377.9749994277954" fill="rgb(0, 0, 0)" stroke="rgb(60, 60, 60)" stroke-width="1px" opacity="0.25"></line><line x1="557.8649997711182" y1="0" x2="557.8649997711182" y2="377.9749994277954" fill="rgb(0, 0, 0)" stroke="rgb(60, 60, 60)" stroke-width="1px" opacity="0.25"></line><line x1="637.5599997384207" y1="0" x2="637.5599997384207" y2="377.9749994277954" fill="rgb(0, 0, 0)" stroke="rgb(60, 60, 60)" stroke-width="1px" opacity="0.25"></line><line x1="717.2549997057234" y1="0" x2="717.2549997057234" y2="377.9749994277954" fill="rgb(0, 0, 0)" stroke="rgb(60, 60, 60)" stroke-width="1px" opacity="0.25"></line><line x1="796.949999673026" y1="0" x2="796.949999673026" y2="377.9749994277954" fill="rgb(0, 0, 0)" stroke="rgb(60, 60, 60)" stroke-width="1px" opacity="0.25"></line><line x1="876.6449996403285" y1="0" x2="876.6449996403285" y2="377.9749994277954" fill="rgb(0, 0, 0)" stroke="rgb(60, 60, 60)" stroke-width="1px" opacity="0.25"></line><line x1="956.3399996076311" y1="0" x2="956.3399996076311" y2="377.9749994277954" fill="rgb(0, 0, 0)" stroke="rgb(60, 60, 60)" stroke-width="1px" opacity="0.25"></line><line x1="1036.0349995749339" y1="0" x2="1036.0349995749339" y2="377.9749994277954" fill="rgb(0, 0, 0)" stroke="rgb(60, 60, 60)" stroke-width="1px" opacity="0.25"></line><line x1="1115.7299995422363" y1="0" x2="1115.7299995422363" y2="377.9749994277954" fill="rgb(0, 0, 0)" stroke="rgb(60, 60, 60)" stroke-width="1px" opacity="0.25"></line></g><g><line x1="0" y1="377.9749994277954" x2="1115.7299995422363" y2="377.9749994277954" fill="rgb(0, 0, 0)" stroke="rgb(60, 60, 60)" stroke-width="1px" opacity="0.25"></line><line x1="0" y1="340.17749948501586" x2="1115.7299995422363" y2="340.17749948501586" fill="rgb(0, 0, 0)" stroke="rgb(60, 60, 60)" stroke-width="1px" opacity="0.25"></line><line x1="0" y1="302.3799995422363" x2="1115.7299995422363" y2="302.3799995422363" fill="rgb(0, 0, 0)" stroke="rgb(60, 60, 60)" stroke-width="1px" opacity="0.25"></line><line x1="0" y1="264.5824995994568" x2="1115.7299995422363" y2="264.5824995994568" fill="rgb(0, 0, 0)" stroke="rgb(60, 60, 60)" stroke-width="1px" opacity="0.25"></line><line x1="0" y1="226.78499965667723" x2="1115.7299995422363" y2="226.78499965667723" fill="rgb(0, 0, 0)" stroke="rgb(60, 60, 60)" stroke-width="1px" opacity="0.25"></line><line x1="0" y1="188.9874997138977" x2="1115.7299995422363" y2="188.9874997138977" fill="rgb(0, 0, 0)" stroke="rgb(60, 60, 60)" stroke-width="1px" opacity="0.25"></line><line x1="0" y1="151.18999977111818" x2="1115.7299995422363" y2="151.18999977111818" fill="rgb(0, 0, 0)" stroke="rgb(60, 60, 60)" stroke-width="1px" opacity="0.25"></line><line x1="0" y1="113.39249982833866" x2="1115.7299995422363" y2="113.39249982833866" fill="rgb(0, 0, 0)" stroke="rgb(60, 60, 60)" stroke-width="1px" opacity="0.25"></line><line x1="0" y1="75.59499988555905" x2="1115.7299995422363" y2="75.59499988555905" fill="rgb(0, 0, 0)" stroke="rgb(60, 60, 60)" stroke-width="1px" opacity="0.25"></line><line x1="0" y1="37.79749994277955" x2="1115.7299995422363" y2="37.79749994277955" fill="rgb(0, 0, 0)" stroke="rgb(60, 60, 60)" stroke-width="1px" opacity="0.25"></line><line x1="0" y1="0" x2="1115.7299995422363" y2="0" fill="rgb(0, 0, 0)" stroke="rgb(60, 60, 60)" stroke-width="1px" opacity="0.25"></line></g></g></g><g><g><line x1="0" y1="188.9874997138977" x2="1115.7299995422363" y2="188.9874997138977" fill="rgb(0, 0, 0)" stroke="rgb(153, 153, 153)" stroke-width="1.5px"></line></g></g><g><g><line x1="79.69499996730259" y1="0" x2="79.69499996730259" y2="377.9749994277954" fill="rgb(0, 0, 0)" stroke="rgb(153, 153, 153)" stroke-width="1.5px"></line></g></g><g><g><g><g><g><path style="fill: none;" stroke="rgb(187, 187, 187)" stroke-width="2px" d="M117.94859995160785,420.18183471122495L122.730299949646,362.62226345297296L127.51199994768415,313.9278559661761L132.29369994572232,271.91818882955687L137.07539994376046,240.36459076187532L141.85709994179862,215.4440310584381L146.63879993983676,190.09126651786508L151.42049993787492,170.97516014052437L156.20219993591311,157.28926866372845L160.98389993395125,147.89330553710604L165.7655999319894,141.55922755375252L170.54729993002755,133.2001821559351L175.3289999280657,123.98141489825196L180.11069992610385,115.12723748296452L184.892399924142,105.36603297025937L189.67409992218018,95.13127783551744L194.45579992021834,89.78563451985247L199.2374999182565,86.07433542685482L204.01919991629464,82.74345455322788L208.8008999143328,79.15278431386969L213.58259991237094,74.57023151340547L218.3642999104091,69.92338408877231L223.14599990844727,66.84000293903239L227.92769990648543,65.45147455963235L232.7093999045236,65.83864864475225L237.49109990256173,63.57691196429744L242.2727999005999,62.62712325842716L247.05449989863803,59.901701451351016L251.8361998966762,55.188054972905945L256.61789989471436,52.12625233462188L261.3995998927525,53.70335790719838L266.1812998907907,54.52082745648522L270.96299988882885,55.06073335519602L275.74469988686695,57.612929135934564L280.5263998849052,59.93569996885566L285.3080998829433,58.49182377623396L290.08979988098145,59.18023452158826L294.8714998790196,63.780075560556554L299.6531998770578,66.1429200121338L304.43489987509594,65.86615306074697L309.21659987313404,68.35132358977597L313.9982998711722,69.71495369889772L318.77999986921037,68.1370161622624L323.56169986724854,65.8424270656613L328.34339986528664,70.07712966552504L333.12509986332486,77.32275201256533L337.906799861363,81.3498483524146L342.6884998594012,86.8911832136339L347.47019985743935,93.62603999630574L352.25189985547746,98.6115429541843L357.0335998535156,104.8701967045734L361.8152998515538,113.06004126928838L366.59699984959195,126.88478896007487L371.37869984763006,138.92741485850374L376.1603998456682,137.87225538280896L380.9420998437064,138.41412169160233L385.72379984174455,148.4788860465007L390.5054998397827,161.5126271249053L395.2871998378208,181.13851230416526L400.06889983585904,206.89300600657288L404.8505998338972,214.84475740308648L409.63229983193537,230.34260630428315L414.41399982997353,239.85175252229095L419.19569982801164,239.79057038940863L423.9773998260498,245.600334983943L428.75909982408797,254.40034062416032L433.54079982212613,242.5255133978426L438.32249982016424,230.54764194474504L443.1041998182024,214.3246173702907L447.88589981624057,196.3853973441427L452.66759981427873,181.48292307840612L457.4492998123169,172.99092728517428L462.23099981035506,175.2271637579402L467.0126998083932,179.57465200105875L471.7943998064314,180.54539060554345L476.57609980446955,197.69588465957798L481.35779980250766,214.7598376013539L486.1394998005458,215.14151113158832L490.921199798584,214.8806932699769L495.70289979662215,223.99529002547666L500.4845997946603,212.0435318228342L505.2662997926984,202.2518411157356L510.0479997907366,194.44767151550403L514.8296997887747,195.03980251659985L519.6113997868129,191.70866688204086L524.3930997848511,198.53149565538632L529.1747997828893,204.4022369270319L533.9564997809274,227.33055369350618L538.7381997789655,245.96761538691325L543.5198997770037,248.66083771905053L548.3015997750418,246.71423904375914L553.0832997730801,248.8386872499591L557.8649997711182,239.39059691118837L562.6466997691564,232.5321858737716L567.4283997671945,241.90599015891354L572.2100997652327,248.2027773701553L576.9917997632708,255.45030448841763L581.7734997613089,257.17229780310583L586.555199759347,245.00709996433508L591.3368997573853,226.70093352619432L596.1185997554234,220.28504972547094L600.9002997534616,199.7745768420687L605.6819997514997,178.08864013207307L610.4636997495379,172.37331445075122L615.245399747576,174.67761311319202L620.0270997456142,168.63600660844233L624.8087997436525,162.0844507508764L629.5904997416905,160.91381035437328L634.3721997397287,158.67638243020315L639.1538997377668,149.1112820735344L643.935599735805,151.49781489873806L648.7172997338431,152.2704625648765L653.4989997318813,169.95685457287314L658.2806997299194,185.1200024781088L663.0623997279577,188.58873244724847L667.8440997259956,196.62152872061307L672.6257997240339,215.15471679126165L677.407499722072,218.32593601129972L682.1891997201102,215.08630082156876L686.9708997181484,225.88631242519818L691.7525997161865,233.15564542812348L696.5342997142247,226.58218868276026L701.3159997122629,238.1570370476168L706.0976997103011,244.29305065577168L710.8793997083392,257.10035419674495L715.6610997063773,262.00834535564735L720.4427997044154,268.9124423353717L725.2244997024536,261.53134331655554L730.0061997004917,256.4376473716345L734.7878996985299,248.7610010607738L739.569599696568,234.89736337696286L744.3512996946063,227.65765155331465L749.1329996926444,225.40115230146714L753.9146996906826,230.52635943009307L758.6963996887207,228.48436553580737L763.4780996867588,247.9034214139832L768.259799684797,268.63184974082077L773.0414996828351,280.15971813338206L777.8231996808734,286.6423602544885L782.6048996789115,297.4453628963925L787.3865996769497,295.69821176714134L792.1682996749878,286.0934476668673L796.949999673026,273.4464849560191L801.731699671064,272.06894993959247L806.5133996691022,257.38739892597175L811.2950996671403,254.4498463973091L816.0767996651786,255.51034620660454L820.8584996632168,246.8492693793359L825.6401996612549,241.0440906365257L830.4218996592931,241.3978328051221L835.2035996573312,241.23221885973166L839.9852996553694,226.07329757430443L844.7669996534074,238.36110493887128L849.5486996514456,237.41046436357647L854.3303996494838,236.20443278210718L859.112099647522,221.79672463463865L863.8937996455601,220.79111644460232L868.6754996435983,223.14032035814392L873.4571996416364,218.94979622347688L878.2388996396746,223.8520747832323L883.0205996377128,223.6856155893886L887.802299635751,228.92177683430216L892.5839996337891,220.2811018296649L897.3656996318272,245.5243582886627L902.1473996298654,248.7426742783857L906.9290996279035,265.64492127951416L911.7107996259417,267.46996163494146L916.4924996239798,269.7774366650899L921.274199622018,263.308226433614L926.0558996200562,263.64331835203143L930.8375996180944,246.121362341645L935.6192996161324,239.1122392566449L940.4009996141706,242.49789795702523L945.1826996122088,235.18225652066593L949.9643996102469,234.71168978915958L954.7460996082851,245.5313773347556L959.5277996063232,260.4082036606304L964.3094996043615,253.79535289838654L969.0911996023996,251.27557735282727L973.8728996004378,245.73314366093032L978.6545995984758,247.01006972591028L983.436299596514,248.02115840236314L988.2179995945521,250.21817508366001L992.9996995925903,254.83775266637753L997.7813995906284,261.8778835909613L1002.5630995886667,259.9016419221394L1007.3447995867048,249.03065361666467L1012.126499584743,244.73622382944535L1016.9081995827812,233.75146430886247L1021.6898995808192,231.40611107579684L1026.4715995788574,227.32542365909208L1031.2532995768956,219.57658391902652L1036.0349995749339,217.0164046572549" fill="none"></path></g><g><path style="fill: none;" stroke="rgb(0, 153, 136)" stroke-width="2px" d="M117.94859995160785,410.0769933324439L122.730299949646,355.6151879808664L127.51199994768415,307.0049273082176L132.29369994572232,272.7085731687567L137.07539994376046,236.6896324963402L141.85709994179862,210.39427222874505L146.63879993983676,192.08000427516106L151.42049993787492,178.5575242622425L156.20219993591311,165.72049549526918L160.98389993395125,158.24743007725598L165.7655999319894,152.46183030521755L170.54729993002755,142.42648905795204L175.3289999280657,131.06478914506502L180.11069992610385,118.84531463101092L184.892399924142,111.01118234965918L189.67409992218018,107.74143712497829L194.45579992021834,103.05312686142861L199.2374999182565,106.46843259887959L204.01919991629464,107.78175475511136L208.8008999143328,103.93871544713943L213.58259991237094,96.73848743610472L218.3642999104091,95.07868291064244L223.14599990844727,87.08504869913304L227.92769990648543,80.75296263424605L232.7093999045236,77.26103878370822L237.49109990256173,78.09467539501384L242.2727999005999,74.1722221470173L247.05449989863803,73.46052264872992L251.8361998966762,72.72370170099282L256.61789989471436,73.12664682432631L261.3995998927525,65.29999558535985L266.1812998907907,65.3127915990517L270.96299988882885,65.41277917580834L275.74469988686695,67.12942357009837L280.5263998849052,70.0526559089501L285.3080998829433,74.02717236302414L290.08979988098145,72.41772277631429L294.8714998790196,69.35199601376917L299.6531998770578,67.77412427156816L304.43489987509594,66.16290609814615L309.21659987313404,66.90819988153385L313.9982998711722,69.23647544742727L318.77999986921037,70.58091257631645L323.56169986724854,70.69371959364344L328.34339986528664,74.70440332066119L333.12509986332486,72.48837133163187L337.906799861363,70.5126764601232L342.6884998594012,70.24468321825566L347.47019985743935,70.22918544862824L352.25189985547746,68.8504621269048L357.0335998535156,68.31233898788304L361.8152998515538,68.20443378478762L366.59699984959195,69.06330352561798L371.37869984763006,72.4263447859995L376.1603998456682,76.02972742151576L380.9420998437064,80.99411892343988L385.72379984174455,84.43763392327065L390.5054998397827,84.95532271387157L395.2871998378208,82.35821691267637L400.06889983585904,80.4840282435091L404.8505998338972,85.66431649890399L409.63229983193537,96.39759937500264L414.41399982997353,104.54353401068573L419.19569982801164,115.16563161283574L423.9773998260498,116.71351079973402L428.75909982408797,120.6189120400935L433.54079982212613,120.05931435714729L438.32249982016424,122.42770221706417L443.1041998182024,123.17795864218692L447.88589981624057,132.93771560145842L452.66759981427873,134.04748388219465L457.4492998123169,133.46019615004917L462.23099981035506,142.70651819636655L467.0126998083932,145.59823768832516L471.7943998064314,142.86955947898062L476.57609980446955,159.53631699922096L481.35779980250766,176.53645647662873L486.1394998005458,184.1494623636261L490.921199798584,198.19825006814662L495.70289979662215,216.00526217767776L500.4845997946603,220.2643532497679L505.2662997926984,217.11587490175768L510.0479997907366,218.41077696191752L514.8296997887747,219.30839473996159L519.6113997868129,215.3818468005104L524.3930997848511,210.34489001983417L529.1747997828893,207.19162429716013L533.9564997809274,203.1669390662566L538.7381997789655,216.20915673204274L543.5198997770037,215.556161945412L548.3015997750418,210.4831128581152L553.0832997730801,215.5032600832161L557.8649997711182,226.84249450494295L562.6466997691564,214.775704938465L567.4283997671945,213.20729427637315L572.2100997652327,217.36495680576613L576.9917997632708,209.7185654640039L581.7734997613089,203.07533518930154L586.555199759347,201.9167986506471L591.3368997573853,210.63944291659968L596.1185997554234,220.4658772363468L600.9002997534616,230.93529528049396L605.6819997514997,222.2717038735689L610.4636997495379,225.64802237715978L615.245399747576,215.7131897994434L620.0270997456142,219.511571582147L624.8087997436525,222.0565609322406L629.5904997416905,226.346562737712L634.3721997397287,231.0116510606395L639.1538997377668,240.86685141693255L643.935599735805,226.97046196973233L648.7172997338431,221.6089243935819L653.4989997318813,217.83036585282613L658.2806997299194,208.2420519928542L663.0623997279577,200.2941513841365L667.8440997259956,195.9926303909088L672.6257997240339,193.83852074811486L677.407499722072,200.42440714374578L682.1891997201102,206.2053436064309L686.9708997181484,207.58344205624059L691.7525997161865,218.04960687608119L696.5342997142247,223.1529166916561L701.3159997122629,224.2069592168186L706.0976997103011,223.02563258117527L710.8793997083392,224.48565228789425L715.6610997063773,222.20024480585997L720.4427997044154,221.88439053471393L725.2244997024536,232.78043040260295L730.0061997004917,242.50723533353377L734.7878996985299,251.25420546006785L739.569599696568,265.8021502037386L744.3512996946063,277.67931448606606L749.1329996926444,280.0855826346521L753.9146996906826,272.63888036015953L758.6963996887207,263.77481282949924L763.4780996867588,245.63338494824075L768.259799684797,230.87831304433564L773.0414996828351,225.65801028046766L777.8231996808734,229.2601306688799L782.6048996789115,237.80458717599902L787.3865996769497,250.97403129350346L792.1682996749878,265.09022727592577L796.949999673026,270.4976335421091L801.731699671064,276.30836033293593L806.5133996691022,271.136768904305L811.2950996671403,263.58841747789603L816.0767996651786,252.73182624221258L820.8584996632168,250.12453317378103L825.6401996612549,255.9438046191911L830.4218996592931,259.3800603310396L835.2035996573312,256.32266338362484L839.9852996553694,250.9112185458368L844.7669996534074,239.33554961463526L849.5486996514456,227.0778679001092L854.3303996494838,212.88970455995153L859.112099647522,209.3816189349877L863.8937996455601,206.51434722889337L868.6754996435983,200.91448808181292L873.4571996416364,197.42182316436921L878.2388996396746,206.59338606645L883.0205996377128,213.4240415962446L887.802299635751,219.54072084395057L892.5839996337891,228.7859667590761L897.3656996318272,238.25291425574363L902.1473996298654,236.71113837575297L906.9290996279035,238.31172852844688L911.7107996259417,246.81884089195066L916.4924996239798,250.60955211665316L921.274199622018,242.2276679781919L926.0558996200562,243.3650357370756L930.8375996180944,241.03779007865543L935.6192996161324,230.99621658666123L940.4009996141706,227.97318480575342L945.1826996122088,230.0217648550131L949.9643996102469,229.06143917159466L954.7460996082851,239.34892607231646L959.5277996063232,251.91481256697077L964.3094996043615,254.03568767292228L969.0911996023996,255.91448875620193L973.8728996004378,258.3716558026239L978.6545995984758,248.56369680581219L983.436299596514,229.67749456101419L988.2179995945521,216.53266192901947L992.9996995925903,224.2295948383798L997.7813995906284,225.5177650246574L1002.5630995886667,224.06414794992202L1007.3447995867048,233.33733952517466L1012.126499584743,248.3511119681572L1016.9081995827812,239.0492471790071L1021.6898995808192,236.68181050971356L1026.4715995788574,241.4769753355848L1031.2532995768956,246.93609030793345L1036.0349995749339,232.9429753689398" fill="none"></path></g></g></g></g><g opacity="0.2"><g><g><g><path style="fill: none;" stroke="rgb(187, 187, 187)" stroke-width="2px" d="M113.16689995356968,437.7787095264694L117.94859995160785,370.2828944406609L122.730299949646,318.3633035817604L127.51199994768415,276.45837995684445L132.29369994572232,239.58230942398592L137.07539994376046,216.07367632908176L141.85709994179862,196.25828623060065L146.63879993983676,170.5722712153172L151.42049993787492,156.2575777675969L156.20219993591311,146.7523831829875L160.98389993395125,140.6592573215452L165.7655999319894,136.68255153136178L170.54729993002755,126.76445893987011L175.3289999280657,116.88378089025298L180.11069992610385,108.3103048299289L184.892399924142,97.8507695112906L189.67409992218018,87.25142220006609L194.45579992021834,85.66996225250904L199.2374999182565,83.2169635648163L204.01919991629464,80.1789710511049L208.8008999143328,76.38828598909447L213.58259991237094,71.04207139330612L218.3642999104091,66.34572279751052L223.14599990844727,64.46607231939902L227.92769990648543,64.38243058612716L232.7093999045236,66.13673842709932L237.49109990256173,61.83557487404039L242.2727999005999,61.89587000700578L247.05449989863803,57.80336784767394L251.8361998966762,51.55896432136052L256.61789989471436,49.76893525912902L261.3995998927525,54.917589631217425L266.1812998907907,55.150206666998145L270.96299988882885,55.47641311792029L275.74469988686695,59.57789402906957L280.5263998849052,61.72402795526398L285.3080998829433,57.38016688456952L290.08979988098145,59.71024987420611L294.8714998790196,67.32154609498343L299.6531998770578,67.96210113856932L304.43489987509594,65.6530670008296L309.21659987313404,70.26468497053276L313.9982998711722,70.7648282076907L318.77999986921037,66.92214389954313L323.56169986724854,64.07579652226036L328.34339986528664,73.33747591497769L333.12509986332486,82.90124001426892L337.906799861363,84.4503561538915L342.6884998594012,91.15752067315668L347.47019985743935,98.81128371393805L352.25189985547746,102.44993903679875L357.0335998535156,109.6888062292092L361.8152998515538,119.36549681911316L366.59699984959195,137.5286212529813L371.37869984763006,148.1991710811879L376.1603998456682,137.0598759634688L380.9420998437064,138.8313107966025L385.72379984174455,156.22786391266143L390.5054998397827,171.54745432686278L395.2871998378208,196.24870708819725L400.06889983585904,226.72168699869204L404.8505998338972,220.96690228358813L409.63229983193537,242.2745784671514L414.41399982997353,247.17295359279254L419.19569982801164,239.74346556143726L423.9773998260498,250.0733395832748L428.75909982408797,261.1755662055666L433.54079982212613,233.382947303244L438.32249982016424,221.3257409144841L443.1041998182024,201.83432411385238L447.88589981624057,182.57378546560398L452.66759981427873,170.0093366968213L457.4492998123169,166.45284202843825L462.23099981035506,176.94886794493692L467.0126998083932,182.92183321478717L471.7943998064314,181.29277342492549L476.57609980446955,210.90024733834798L481.35779980250766,227.89757128219023L486.1394998005458,215.43536597345016L490.921199798584,214.67988659776282L495.70289979662215,231.0127229257287L500.4845997946603,202.8417356845166L505.2662997926984,194.71310579257118L510.0479997907366,188.43915155780357L514.8296997887747,195.4956909864701L519.6113997868129,189.1439872341946L524.3930997848511,203.7844700207054L529.1747997828893,208.9221881715732L533.9564997809274,244.98332854911027L538.7381997789655,260.31650359334174L543.5198997770037,250.73438057653675L548.3015997750418,245.21553032915423L553.0832997730801,250.47432436446707L557.8649997711182,232.11640346452418L562.6466997691564,227.25181631399056L567.4283997671945,249.12298991827063L572.2100997652327,253.05074628500518L576.9917997632708,261.03025899539836L581.7734997613089,258.4980802666268L586.555199759347,235.64097419466208L591.3368997573853,212.60680538355498L596.1185997554234,215.3453869762414L600.9002997534616,183.98332780794493L605.6819997514997,161.39238797481983L610.4636997495379,167.9730194571672L615.245399747576,176.45171916303576L620.0270997456142,163.98450425522796L624.8087997436525,157.04033252425495L629.5904997416905,160.01252084556108L634.3721997397287,156.95376093106324L639.1538997377668,141.7470012679576L643.935599735805,153.33523397654974L648.7172997338431,152.86533289190348L653.4989997318813,183.5738112515962L658.2806997299194,196.7942844936442L663.0623997279577,191.25934755623211L667.8440997259956,202.80607098417693L672.6257997240339,229.42363150052208L677.407499722072,220.76749417185994L682.1891997201102,212.59206841885563L686.9708997181484,234.20136560675357L691.7525997161865,238.75238853657044L696.5342997142247,221.52120871066646L701.3159997122629,247.06864596569216L706.0976997103011,249.01723812399712L710.8793997083392,266.96084453360044L715.6610997063773,265.7870642125014L720.4427997044154,274.2279860277259L725.2244997024536,255.84855026667054L730.0061997004917,252.51595226359797L734.7878996985299,242.85066275064207L739.569599696568,224.22358923102L744.3512996946063,222.08371413156783L749.1329996926444,223.66384756774383L753.9146996906826,234.47231536098204L758.6963996887207,226.91221094463165L763.4780996867588,262.8543759396584L768.259799684797,284.59090517829753L773.0414996828351,289.03515663030976L777.8231996808734,291.63342100259706L782.6048996789115,305.7627189127257L787.3865996769497,294.35306001276206L792.1682996749878,278.6986292887802L796.949999673026,263.7094428689059L801.731699671064,271.0083698826976L806.5133996691022,246.08390389778594L811.2950996671403,252.18819091063958L816.0767996651786,256.32683721022136L820.8584996632168,240.18100668931493L825.6401996612549,236.57461673719396L830.4218996592931,241.67018297032467L835.2035996573312,241.1047107778824L839.9852996553694,214.40226968198436L844.7669996534074,247.82162919300683L849.5486996514456,236.678555248084L854.3303996494838,235.27589519283438L859.112099647522,210.704064379508L863.8937996455601,220.0168871301496L868.6754996435983,224.94899947741936L873.4571996416364,215.72346348262707L878.2388996396746,227.62639544428288L883.0205996377128,223.5574567410311L887.802299635751,232.95315761578428L892.5839996337891,213.62854673759904L897.3656996318272,264.95943184559025L902.1473996298654,251.2204927837476L906.9290996279035,278.6581556963122L911.7107996259417,268.8750812006244L916.4924996239798,271.5539882369742L921.274199622018,258.32750705185816L926.0558996200562,263.90130947506077L930.8375996180944,232.63100682922362L935.6192996161324,233.71583475757402L940.4009996141706,245.1045555405039L945.1826996122088,229.54986001656633L949.9643996102469,234.3493950489733L954.7460996082851,253.86157925039146L959.5277996063232,271.862043398251L964.3094996043615,248.7040430194908L969.0911996023996,249.33557317173296L973.8728996004378,241.4659601990274L978.6545995984758,247.9931897936382L983.436299596514,248.79960720635782L988.2179995945521,251.9096835020036L992.9996995925903,258.39441859289457L997.7813995906284,267.298161382455L1002.5630995886667,258.38011072578973L1007.3447995867048,240.66095465581247L1012.126499584743,241.42989293132075L1016.9081995827812,225.29417158062606L1021.6898995808192,229.6003966397198L1026.4715995788574,224.18365547100962L1031.2532995768956,213.61066305720618L1036.0349995749339,215.0452931902272" fill="none"></path></g><g><path style="fill: none;" stroke="rgb(0, 153, 136)" stroke-width="2px" d="M113.16689995356968,428.1268558435713L117.94859995160785,360.33115229264064L122.730299949646,313.7381759587573L127.51199994768415,269.6002007680081L132.29369994572232,246.3098214743482L137.07539994376046,208.96116222943655L141.85709994179862,190.150101220798L146.63879993983676,177.97992025538778L151.42049993787492,168.14650176906886L156.20219993591311,155.8371567109519L160.98389993395125,152.49384049592044L165.7655999319894,148.00743366570669L170.54729993002755,134.70016678399662L175.3289999280657,122.31728685584326L180.11069992610385,109.43740117832027L184.892399924142,104.97959393348185L189.67409992218018,105.22402268799465L194.45579992021834,99.44354287069575L199.2374999182565,109.09791577172973L204.01919991629464,108.7928965912833L208.8008999143328,100.97991527315503L213.58259991237094,91.19494905688913L218.3642999104091,93.80078031148912L223.14599990844727,80.93065775773061L227.92769990648543,75.87781672595122L232.7093999045236,74.57256643862058L237.49109990256173,78.73650181256596L242.2727999005999,71.15228026581997L247.05449989863803,72.91257701730547L251.8361998966762,72.15641477662894L256.61789989471436,73.43687891043265L261.3995998927525,59.27416675535943L266.1812998907907,65.32264339720388L270.96299988882885,65.48976076145277L275.74469988686695,68.45108783826856L280.5263998849052,72.3032861167386L285.3080998829433,77.08719830554128L290.08979988098145,71.17858902371472L294.8714998790196,66.9916577098627L299.6531998770578,66.55930266474087L304.43489987509594,64.92241069029023L309.21659987313404,67.48201013954031L313.9982998711722,71.02904159107976L318.77999986921037,71.61601018882396L323.56169986724854,70.78057101406336L328.34339986528664,77.79227486270145L333.12509986332486,70.78222280910478L337.906799861363,68.99156624931561L342.6884998594012,70.03835213823385L347.47019985743935,70.21725353749912L352.25189985547746,67.78896718009122L357.0335998535156,67.89803179235287L361.8152998515538,68.12135632753723L366.59699984959195,69.72455721988558L371.37869984763006,75.0155889422224L376.1603998456682,78.80401316744423L380.9420998437064,84.81626105323994L385.72379984174455,87.08883573729958L390.5054998397827,85.35389726946704L395.2871998378208,80.3586752781278L400.06889983585904,79.04106882565469L404.8505998338972,89.65268002296898L409.63229983193537,104.66127734155657L414.41399982997353,110.81518280099033L419.19569982801164,123.34370675785388L423.9773998260498,117.90524079318658L428.75909982408797,123.62572538444113L433.54079982212613,119.6284736631975L438.32249982016424,124.25115127735415L443.1041998182024,123.7555896951576L447.88589981624057,140.45186476479128L452.66759981427873,134.9019072487791L457.4492998123169,133.00803656866282L462.23099981035506,149.82536791344282L467.0126998083932,147.82460579275346L471.7943998064314,140.76871873373298L476.57609980446955,172.36824535551216L481.35779980250766,189.62505943711085L486.1394998005458,190.01080317927895L490.921199798584,209.01457334507836L495.70289979662215,229.7150856602371L500.4845997946603,223.543476464563L505.2662997926984,214.69182520019226L510.0479997907366,219.40773695513792L514.8296997887747,219.99948099385392L519.6113997868129,212.35875236925153L524.3930997848511,206.46687904710114L529.1747997828893,204.76388874076505L533.9564997809274,200.06828760529544L538.7381997789655,226.25051015614363L543.5198997770037,215.05341374685554L548.3015997750418,206.5773140032938L553.0832997730801,219.36832918572736L557.8649997711182,235.57270153759987L562.6466997691564,205.48534482976075L567.4283997671945,211.99975686396618L572.2100997652327,220.56598901866158L576.9917997632708,203.83152080264713L581.7734997613089,197.96063577426528L586.555199759347,201.02482804124057L591.3368997573853,217.3551070859614L596.1185997554234,228.03136206659462L600.9002997534616,238.9958206773152L605.6819997514997,215.60150517974162L610.4636997495379,228.24748883567662L615.245399747576,208.0642479033255L620.0270997456142,222.435989414848L624.8087997436525,224.01597751151616L629.5904997416905,229.64948448174752L634.3721997397287,234.6033562296191L639.1538997377668,248.45448354965373L643.935599735805,216.27147186436582L648.7172997338431,217.4810149322979L653.4989997318813,214.92121016215577L658.2806997299194,200.85989884402625L663.0623997279577,194.1749712694601L667.8440997259956,192.68083989169804L672.6257997240339,192.1800469523355L677.407499722072,205.49495684657666L682.1891997201102,210.65615309540087L686.9708997181484,208.644455906979L691.7525997161865,226.10762757808234L696.5342997142247,227.0820136293111L701.3159997122629,225.0184786830942L706.0976997103011,222.11611561391013L710.8793997083392,225.60973825678406L715.6610997063773,220.44068329314328L720.4427997044154,221.64121069763686L725.2244997024536,241.16941684956177L730.0061997004917,249.99601435115306L734.7878996985299,257.9885983893463L739.569599696568,277.0027802276268L744.3512996946063,286.8236799069731L749.1329996926444,281.9381961649794L753.9146996906826,266.90557860900145L758.6963996887207,256.95026526164577L763.4780996867588,231.6660909157674L768.259799684797,219.5182134369043L773.0414996828351,221.63883912598519L777.8231996808734,232.03344459624154L782.6048996789115,244.38306253988716L787.3865996769497,261.11333782644937L792.1682996749878,275.95844896150754L796.949999673026,274.66085783554223L801.731699671064,280.78210573826277L806.5133996691022,267.1551011672175L811.2950996671403,257.7768548752626L816.0767996651786,244.3732117510227L820.8584996632168,248.11714824498864L825.6401996612549,260.4241286523829L830.4218996592931,262.0256731357372L835.2035996573312,253.968738300217L839.9852996553694,246.74488490966374L844.7669996534074,230.4233089330907L849.5486996514456,217.6405377305183L854.3303996494838,201.96607437770626L859.112099647522,206.68070345382088L863.8937996455601,204.30680175605968L868.6754996435983,196.60309210131737L873.4571996416364,194.73278026332846L878.2388996396746,213.6546778583175L883.0205996377128,218.68304187139614L887.802299635751,224.2500225656357L892.5839996337891,235.9039879503674L897.3656996318272,245.54162604521332L902.1473996298654,235.52410738850352L906.9290996279035,239.5440413008749L911.7107996259417,253.3685645700465L916.4924996239798,253.52806429850375L921.274199622018,235.77435895123503L926.0558996200562,244.24070825940197L930.8375996180944,239.24601687261514L935.6192996161324,223.26509363264802L940.4009996141706,225.64571785939074L945.1826996122088,231.59899020267318L949.9643996102469,228.32207337993626L954.7460996082851,247.26938058880134L959.5277996063232,261.5894331425011L964.3094996043615,255.66857381644252L969.0911996023996,257.3609993247447L973.8728996004378,260.26345697995765L978.6545995984758,241.01243633924034L983.436299596514,215.13679017785117L988.2179995945521,206.4123040619085L992.9996995925903,230.15555203408198L997.7813995906284,226.5095420707295L1002.5630995886667,222.94499144105498L1007.3447995867048,240.47687640169661L1012.126499584743,259.91038809682516L1016.9081995827812,231.88763446523672L1021.6898995808192,234.85909378202737L1026.4715995788574,245.1688279006361L1031.2532995768956,251.13912572912227L1036.0349995749339,222.16951519467034" fill="none"></path></g></g></g></g></g></g><g transform="translate(61, 377)" clip-path="url(#clip_1)"><clipPath id="clip_1"><rect width="1115" height="22"></rect></clipPath><g><g><line x1="0" y1="0" x2="0" y2="5" style="visibility: inherit;" fill="rgb(0, 0, 0)" stroke="rgb(204, 204, 204)" stroke-width="1px"></line><line x1="79.69499996730259" y1="0" x2="79.69499996730259" y2="5" style="visibility: inherit;" fill="rgb(0, 0, 0)" stroke="rgb(204, 204, 204)" stroke-width="1px"></line><line x1="159.38999993460519" y1="0" x2="159.38999993460519" y2="5" style="visibility: inherit;" fill="rgb(0, 0, 0)" stroke="rgb(204, 204, 204)" stroke-width="1px"></line><line x1="239.08499990190776" y1="0" x2="239.08499990190776" y2="5" style="visibility: inherit;" fill="rgb(0, 0, 0)" stroke="rgb(204, 204, 204)" stroke-width="1px"></line><line x1="318.77999986921037" y1="0" x2="318.77999986921037" y2="5" style="visibility: inherit;" fill="rgb(0, 0, 0)" stroke="rgb(204, 204, 204)" stroke-width="1px"></line><line x1="398.474999836513" y1="0" x2="398.474999836513" y2="5" style="visibility: inherit;" fill="rgb(0, 0, 0)" stroke="rgb(204, 204, 204)" stroke-width="1px"></line><line x1="478.16999980381553" y1="0" x2="478.16999980381553" y2="5" style="visibility: inherit;" fill="rgb(0, 0, 0)" stroke="rgb(204, 204, 204)" stroke-width="1px"></line><line x1="557.8649997711182" y1="0" x2="557.8649997711182" y2="5" style="visibility: inherit;" fill="rgb(0, 0, 0)" stroke="rgb(204, 204, 204)" stroke-width="1px"></line><line x1="637.5599997384207" y1="0" x2="637.5599997384207" y2="5" style="visibility: inherit;" fill="rgb(0, 0, 0)" stroke="rgb(204, 204, 204)" stroke-width="1px"></line><line x1="717.2549997057234" y1="0" x2="717.2549997057234" y2="5" style="visibility: inherit;" fill="rgb(0, 0, 0)" stroke="rgb(204, 204, 204)" stroke-width="1px"></line><line x1="796.949999673026" y1="0" x2="796.949999673026" y2="5" style="visibility: inherit;" fill="rgb(0, 0, 0)" stroke="rgb(204, 204, 204)" stroke-width="1px"></line><line x1="876.6449996403285" y1="0" x2="876.6449996403285" y2="5" style="visibility: inherit;" fill="rgb(0, 0, 0)" stroke="rgb(204, 204, 204)" stroke-width="1px"></line><line x1="956.3399996076311" y1="0" x2="956.3399996076311" y2="5" style="visibility: inherit;" fill="rgb(0, 0, 0)" stroke="rgb(204, 204, 204)" stroke-width="1px"></line><line x1="1036.0349995749339" y1="0" x2="1036.0349995749339" y2="5" style="visibility: inherit;" fill="rgb(0, 0, 0)" stroke="rgb(204, 204, 204)" stroke-width="1px"></line><line x1="1115.7299995422363" y1="0" x2="1115.7299995422363" y2="5" style="visibility: inherit;" fill="rgb(0, 0, 0)" stroke="rgb(204, 204, 204)" stroke-width="1px"></line></g><g transform="translate(0, 8)"><text style="text-anchor: middle; visibility: hidden; font-family: &quot;Helvetica Neue&quot;, sans-serif; font-size: 12px; font-weight: 200;" x="0" y="0" dx="0em" dy="0.95em" fill="rgb(50, 49, 63)" stroke="none" stroke-width="1px">-2M</text><text style="text-anchor: middle; visibility: hidden; font-family: &quot;Helvetica Neue&quot;, sans-serif; font-size: 12px; font-weight: 200;" x="79.69499996730259" y="0" dx="0em" dy="0.95em" fill="rgb(50, 49, 63)" stroke="none" stroke-width="1px">0</text><text style="text-anchor: middle; visibility: hidden; font-family: &quot;Helvetica Neue&quot;, sans-serif; font-size: 12px; font-weight: 200;" x="159.38999993460519" y="0" dx="0em" dy="0.95em" fill="rgb(50, 49, 63)" stroke="none" stroke-width="1px">2M</text><text style="text-anchor: middle; visibility: hidden; font-family: &quot;Helvetica Neue&quot;, sans-serif; font-size: 12px; font-weight: 200;" x="239.08499990190776" y="0" dx="0em" dy="0.95em" fill="rgb(50, 49, 63)" stroke="none" stroke-width="1px">4M</text><text style="text-anchor: middle; visibility: hidden; font-family: &quot;Helvetica Neue&quot;, sans-serif; font-size: 12px; font-weight: 200;" x="318.77999986921037" y="0" dx="0em" dy="0.95em" fill="rgb(50, 49, 63)" stroke="none" stroke-width="1px">6M</text><text style="text-anchor: middle; visibility: hidden; font-family: &quot;Helvetica Neue&quot;, sans-serif; font-size: 12px; font-weight: 200;" x="398.474999836513" y="0" dx="0em" dy="0.95em" fill="rgb(50, 49, 63)" stroke="none" stroke-width="1px">8M</text><text style="text-anchor: middle; visibility: hidden; font-family: &quot;Helvetica Neue&quot;, sans-serif; font-size: 12px; font-weight: 200;" x="478.16999980381553" y="0" dx="0em" dy="0.95em" fill="rgb(50, 49, 63)" stroke="none" stroke-width="1px">10M</text><text style="text-anchor: middle; visibility: hidden; font-family: &quot;Helvetica Neue&quot;, sans-serif; font-size: 12px; font-weight: 200;" x="557.8649997711182" y="0" dx="0em" dy="0.95em" fill="rgb(50, 49, 63)" stroke="none" stroke-width="1px">12M</text><text style="text-anchor: middle; visibility: hidden; font-family: &quot;Helvetica Neue&quot;, sans-serif; font-size: 12px; font-weight: 200;" x="637.5599997384207" y="0" dx="0em" dy="0.95em" fill="rgb(50, 49, 63)" stroke="none" stroke-width="1px">14M</text><text style="text-anchor: middle; visibility: hidden; font-family: &quot;Helvetica Neue&quot;, sans-serif; font-size: 12px; font-weight: 200;" x="717.2549997057234" y="0" dx="0em" dy="0.95em" fill="rgb(50, 49, 63)" stroke="none" stroke-width="1px">16M</text><text style="text-anchor: middle; visibility: hidden; font-family: &quot;Helvetica Neue&quot;, sans-serif; font-size: 12px; font-weight: 200;" x="796.949999673026" y="0" dx="0em" dy="0.95em" fill="rgb(50, 49, 63)" stroke="none" stroke-width="1px">18M</text><text style="text-anchor: middle; visibility: hidden; font-family: &quot;Helvetica Neue&quot;, sans-serif; font-size: 12px; font-weight: 200;" x="876.6449996403285" y="0" dx="0em" dy="0.95em" fill="rgb(50, 49, 63)" stroke="none" stroke-width="1px">20M</text><text style="text-anchor: middle; visibility: hidden; font-family: &quot;Helvetica Neue&quot;, sans-serif; font-size: 12px; font-weight: 200;" x="956.3399996076311" y="0" dx="0em" dy="0.95em" fill="rgb(50, 49, 63)" stroke="none" stroke-width="1px">22M</text><text style="text-anchor: middle; visibility: hidden; font-family: &quot;Helvetica Neue&quot;, sans-serif; font-size: 12px; font-weight: 200;" x="1036.0349995749339" y="0" dx="0em" dy="0.95em" fill="rgb(50, 49, 63)" stroke="none" stroke-width="1px">24M</text><text style="text-anchor: middle; visibility: hidden; font-family: &quot;Helvetica Neue&quot;, sans-serif; font-size: 12px; font-weight: 200;" x="1115.7299995422363" y="0" dx="0em" dy="0.95em" fill="rgb(50, 49, 63)" stroke="none" stroke-width="1px">26M</text></g><line x1="0" y1="0" x2="1115.7299995422363" y2="0" fill="rgb(0, 0, 0)" stroke="rgb(204, 204, 204)" stroke-width="1px"></line></g></g></g></g></svg>